<svg version="1.2" xmlns="http://www.w3.org/2000/svg" viewBox="0 0 6209 1131" width="6209" height="1131">
	<defs>
		<clipPath clipPathUnits="userSpaceOnUse" id="cp1">
			<path d="m3895.65 599.44l247.84-247.85h-114.87l-204.02 204.03h-0.01l-204.02-204.03h-114.86l247.51 247.52v131.07 33.44h142.43v-33.44"/>
		</clipPath>
		<clipPath clipPathUnits="userSpaceOnUse" id="cp2">
			<path d="m3432.43 555.06h-78.47-13.02v50.4 6.45h13.02 8.42l-0.1 27.8q0 0.05 0 0.11c-0.05 21.33-14.81 39.17-34.66 44.03l-8.42 0.08-61.91 0.64-61.91-0.64c-19.89-4.82-34.69-22.68-34.74-44.05q-0.01-0.05-0.01-0.1v-27.87-56.85-73.43-3.55c0-0.34 0.05-0.67 0.05-1.01 0.34-15.2 8.09-28.57 19.83-36.58 6.99-4.77 15.38-7.62 24.42-7.85q0.59-0.03 1.19-0.05h16.37 69.6 16.38 7.46 46.5 14.13 31.3 52.36 14.76v-3.42-35.05-42.53h-112.55-8.47-193.33c0 0-76.68 5.44-121.02 42.53-12.23 10.23-22 22.87-27.02 38.47-2.39 7.4-3.71 15.47-3.71 24.27v98.2 0.56 84.16 20.06c0 9.27 1.5 17.7 4.13 25.42 8.14 23.91 27.5 40.75 49.61 52.59 20.27 10.86 42.82 17.52 61.2 21.52 9.28 2.02 17.5 3.38 23.79 4.25h4.54 8.48 62.43 8.54 14.24 22.9 14.25 8.54 62.43 8.47 4.55c6.29-0.87 14.51-2.23 23.79-4.25 13.71-2.99 29.73-7.51 45.4-14.11l12.68 18.36h56.86v-0.1-78.26-25.42-20.06-40.93-43.23-0.56z"/>
		</clipPath>
		<clipPath clipPathUnits="userSpaceOnUse" id="cp3">
			<path d="m4567.04 555.06h-78.48-13.01v50.4 6.45h13.01 8.43l-0.1 27.8q0 0.05 0 0.11c-0.05 21.33-14.81 39.17-34.66 44.03l-8.42 0.08-61.91 0.64-61.91-0.64c-19.9-4.82-34.7-22.68-34.75-44.05q0-0.05 0-0.1v-27.87-56.85-73.43-3.55c0-0.34 0.04-0.67 0.05-1.01 0.33-15.2 8.09-28.57 19.82-36.58 6.99-4.77 15.38-7.62 24.43-7.85q0.59-0.03 1.19-0.05h16.37 69.6 16.37 7.47 46.5 14.13 31.3 52.36 14.75v-3.42-35.05-42.53h-112.54-8.48-193.32c0 0-76.68 5.44-121.02 42.53-12.23 10.23-22 22.87-27.02 38.47-2.39 7.4-3.71 15.47-3.71 24.27v98.2 0.56 84.16 20.06c0 9.27 1.5 17.7 4.13 25.42 8.14 23.91 27.5 40.75 49.6 52.59 20.27 10.86 42.83 17.52 61.2 21.52 9.28 2.02 17.5 3.38 23.8 4.25h4.54 8.48 62.43 8.54 14.24 22.9 14.24 8.54 62.43 8.48 4.55c6.29-0.87 14.51-2.23 23.79-4.25 13.71-2.99 29.72-7.51 45.4-14.11l12.68 18.36h56.85v-0.1-78.26-25.42-20.06-40.93-43.23-0.56z"/>
		</clipPath>
	</defs>
	<g id="Capa 1">
		<g>
			<path fill="#ffdc00" d="m1510.1 564.6l-10.8 68.5h990.3v-11.6c-167.7-17.9-622.5-56.9-979.5-56.9z"/>
			<path fill="#ffdc00" d="m1397.7 564.7c-483.9 1.9-863.2 35.7-1059.9 57.7v10.8l1052-0.1h-4.8z"/>
			<path fill="#ffffff" d="m613.2 421h-178.4l15.8-75.3h162.8l12.5-68.6h-159.7l12.8-68.7h179.3l11.6-67.8h-258.5l-73.6 346.4h263.4z"/>
			<path fill="#ffffff" d="m732.7 493.4c62.8 0 69.5-27.3 69.5-22.4l-3.5 16h77.1l47-252.3h-74.1c0 0-14.7 91.2-24.6 133.3-9.8 42.1-25.8 57.9-60.2 57.9-34.2 0-29.3-23.5-26.3-40.1 3.1-16.6 28.8-151.1 28.8-151.1h-76.2c0 0-24.1 145.5-32.5 184.5-8.9 41.5 12.2 74.2 75 74.2z"/>
			<path fill="#ffffff" d="m1037 337.7c5.9-30.3 20.5-45.1 47-45.1h40.1l15.9-57h-33.5c-32.3 0-51.9 20.7-51.9 13.8l3.1-14.6h-77.7l-46.8 252.2h73.9c0 0 23.9-119 29.9-149.3z"/>
			<path fill="#ffffff" d="m1884.4 222.2c-122.6 0-164.8 85.2-164.8 167.4 0 82.3 55.9 107.9 105.1 107.9 103.8 0 152.1-65.7 152.1-101.9h-72.8c0 0-12.9 44.1-65.7 44.1-29.5 0-45.1-26.4-45.1-52.1 0-25.6 15.6-111.6 82.4-111.6 50.1 0 43.1 54.8 43.1 54.8h75.5c0 0 19.6-108.6-109.8-108.6z"/>
			<path fill-rule="evenodd" fill="#ffffff" d="m1127.2 387.8c0-63.8 35.4-164 166.7-164 74.4 0 109.9 33.6 109.9 98.3 0 75.5-46.2 175.4-163.8 175.4-80.5 0-112.8-46-112.8-109.7zm122.6 51.9c49 0 77.3-61.9 77.3-104 0-42.1-20.5-58.8-45-58.8-62.8 0-80.5 82.4-80.5 100 0 17.7-0.9 62.8 48.2 62.8z"/>
			<path fill="#ffffff" d="m2471.9 235.6c-32.3 0-51.9 20.7-51.9 13.8l3.1-14.7h-77.7l-46.8 252.3h74c0 0 23.7-119 29.7-149.3 6-30.3 20.6-45 47.1-45h40.2l15.7-57.1z"/>
			<path fill-rule="evenodd" fill="#ffffff" d="m1692 320.1c0 42.1-26.5 178.5-131.5 178.5-53 0-71.3-31.6-72.4-26.8-6.4 26.2-28 161.3-28 161.3h-75.1l74.4-399.3h77.4c0 0-2.8 11.6-2.8 18.6 0 6.8 10.9-24.5 77.5-24.5 66.6 0 80.5 50 80.5 92.2zm-72.6 18.5c0-25.6-1.2-52.8-42.2-52.8-55.8 0-69.7 76.4-69.7 92 0 15.7 2.2 56 39.4 56 37.2 0 72.5-52 72.5-95.2z"/>
			<path fill-rule="evenodd" fill="#ffffff" d="m2276.6 288.8c-2.6 16.4-25.6 123.4-27.4 137.2-1.9 13.7 8.7 8.8 8.7 8.8l-13.7 52.2h-38.9c-29.4 0-26.8-15-33.7-15-6.9 0-29.4 30.4-84.2 30.4-50 0-80.5-34.3-80.5-76.4 0-42.2 42.1-95.2 125.5-95.2h52c14.7 0 35.3-55.9-23.5-55.9-47.1 0-50 33.4-50 33.4h-68.7c0 0-1-79.4 114.7-79.4 103 0 124.6 30.5 119.7 59.9zm-99.2 87.2c0 0-26.3 5.8-65.6 11.6-33.8 5.1-45 58.9-1.9 58.9 22.5 0 67.5-19.5 67.5-70.5z"/>
			<path fill="#ffffff" d="m532.1 930v-65q0-20.7-11-32.4-11-11.8-29.8-11.8-18.3 0-29.7 11.9-11.4 12-11.4 32.3v65h-15.2v-65q0-20.3-10.6-32.3c-7.1-7.9-17.2-11.9-30.2-11.9q-18 0-29.6 11.8-11.6 11.7-11.6 32.4v65h-15.2v-65q0-12.9 4.3-23.4c2.9-7.1 6.7-13.1 11.8-18.1q7.5-7.5 17.9-11.6c7-2.8 14.4-4.2 22.5-4.2 7.1 0 13.4 0.8 19 2.4 5.5 1.6 10.3 3.7 14.2 6.3 3.9 2.6 7.1 5.5 9.8 8.7q3.8 4.8 6.2 9.6 2.4-4.8 6.5-9.6c2.6-3.2 5.9-6.1 9.8-8.7 3.9-2.6 8.5-4.7 13.8-6.3 5.2-1.6 11.1-2.4 17.7-2.4 8.6 0 16.3 1.4 23.2 4.2 7 2.7 12.8 6.6 17.7 11.5 4.8 4.9 8.5 10.8 11.2 17.8q4 10.4 4 23.2v65.6z"/>
			<path fill-rule="evenodd" fill="#ffffff" d="m642.5 933q-14.7 0-26.8-5c-8.1-3.3-15-7.8-20.7-13.5q-8.6-8.6-13.4-19.9c-3.2-7.6-4.8-15.7-4.8-24.3 0-8.5 1.6-16.6 4.8-24.2 3.2-7.6 7.7-14.2 13.4-19.9 5.7-5.7 12.6-10.2 20.7-13.6 8.1-3.2 17-4.9 26.8-4.9 10 0 19.1 1.7 27.1 4.9 8.1 3.4 15 7.9 20.7 13.6 5.7 5.7 10.1 12.3 13.2 19.9 3.2 7.6 4.7 15.7 4.7 24.2 0 8.6-1.5 16.7-4.7 24.3q-4.6 11.3-13.2 19.9c-5.7 5.7-12.6 10.2-20.7 13.5-8 3.3-17.1 5-27.1 5zm0-112.2q-10.5 0-19.7 3.8-9.3 3.7-16.1 10.4c-4.6 4.5-8.1 9.7-10.7 15.8-2.6 6.1-3.9 12.6-3.9 19.5q0 10.5 3.9 19.3c2.6 5.9 6.1 11.1 10.7 15.5q6.8 6.7 16.1 10.5 9.2 3.7 19.7 3.7c7.2 0 13.9-1.2 20-3.7q9.3-3.8 16-10.3 6.7-6.6 10.6-15.5 3.8-9 3.8-19.5c0-6.9-1.2-13.4-3.8-19.5-2.6-6.1-6.1-11.3-10.6-15.6q-6.7-6.6-16-10.5c-6.1-2.6-12.8-3.9-20-3.9z"/>
			<path fill="#ffffff" d="m782.4 930l-58.3-119.3h16.3l50.6 103 50.3-103h16.6l-58.6 119.3z"/>
			<path fill="#ffffff" d="m884.1 810.7h15.3v119.4h-15.3zm-0.5-41.8h16.3v17.1h-16.3z"/>
			<path fill="#ffffff" d="m996.4 807.7c8.8 0 16.7 1.2 24.1 3.8 7.2 2.5 13.5 6.1 18.7 10.8 5.3 4.8 9.4 10.5 12.3 17.3 2.8 6.7 4.2 14.4 4.2 22.7v67.8h-15.2v-67.6c0-6.9-1.3-12.9-3.6-18.1q-3.4-7.8-9.5-13c-4-3.5-8.7-6.1-14-7.9-5.3-1.8-10.9-2.7-17-2.7-5.7 0-11.2 0.9-16.5 2.7-5.3 1.8-9.9 4.4-13.8 7.9q-5.9 5.2-9.4 13c-2.3 5.2-3.5 11.2-3.5 18.1v67.6h-15.3v-67.8c0-8.3 1.4-16 4.3-22.7 2.8-6.8 6.9-12.5 12-17.3q7.8-7.1 18.5-10.8 10.9-3.8 23.7-3.8z"/>
			<path fill-rule="evenodd" fill="#ffffff" d="m1155 990.2c-9.3 0-18.5-1.1-27.4-3.3-8.9-2.2-16.7-5.3-23.2-9.2l3.2-13.7c7.1 4.1 14.5 7.3 22.1 9.4 7.6 2.1 16.1 3.2 25.3 3.2 16 0 28.6-4 37.9-11.9 9.3-8 14-19.2 14-33.6v-21.2c-2.3 3.8-5.3 7.1-8.9 9.9-3.5 2.9-7.5 5.3-11.9 7.3q-6.5 2.9-14.1 4.4-7.4 1.5-14.9 1.5-15 0-27.2-5c-8.1-3.3-15-7.7-20.9-13.4q-8.7-8.4-13.5-19.8-4.8-11.3-4.8-23.9 0-12.6 4.5-24.1c3.1-7.7 7.4-14.4 13.1-20.2q8.6-8.7 20.9-13.8c8.2-3.4 17.4-5.1 27.7-5.1q15.6 0 27.7 5.1c8.1 3.4 14.9 8 20.6 13.8 5.6 5.8 9.8 12.5 12.7 20.2 2.8 7.7 4.2 15.7 4.2 24.3v60c0 10.2-1.8 19-5.5 26.4-3.6 7.4-8.5 13.5-14.7 18.4-6.2 4.9-13.3 8.6-21.4 10.9q-12.2 3.4-25.5 3.4zm1.9-169.4c-7.3 0-14.1 1.3-20.2 3.8-6.2 2.5-11.6 5.9-16.1 10.3q-6.8 6.5-10.8 15.8c-2.5 6.1-3.9 12.9-3.9 20.2 0 6.8 1.3 13 3.8 18.8 2.5 5.8 6 11 10.5 15.4 4.5 4.5 9.8 8 16.1 10.5 6.2 2.5 13.1 3.7 20.6 3.7q10.8 0 20-3.6 9.3-3.6 15.9-10c4.4-4.3 7.8-9.4 10.3-15.3 2.5-5.9 3.8-12.2 3.8-19 0-7.6-1.3-14.6-3.9-20.9-2.6-6.2-6.1-11.5-10.6-15.9-4.5-4.3-9.8-7.8-15.9-10.2-6.1-2.4-12.6-3.6-19.6-3.6z"/>
			<path fill="#ffffff" d="m2126 930l-48.7-103-48.7 103h-16.1l-50.5-119.3h16.3l43.1 102.2 47.9-102.2h16.1l48.4 102.2 42-102.2h16.3l-50.3 119.3z"/>
			<path fill-rule="evenodd" fill="#ffffff" d="m2269 933c-9.1 0-17.7-1.5-25.8-4.6-8.2-3-15.3-7.3-21.3-12.7-6.1-5.4-10.9-11.9-14.4-19.7-3.5-7.6-5.2-16.1-5.2-25.4 0-8.9 1.7-17.2 5-24.9 3.2-7.6 7.8-14.3 13.7-19.9 5.9-5.6 12.9-10.1 20.9-13.3q12-4.8 26.1-4.8c10 0 19.1 1.6 27.1 4.7 8.2 3.2 15 7.5 20.7 13.1 5.8 5.6 10.1 12.3 13.3 20 3.1 7.6 4.7 15.9 4.7 24.8v59.7h-15.3v-19.8c-5.9 7.3-13 13-21.3 16.9q-12.5 5.9-28.2 5.9zm-1.3-112.2c-6.7 0-13.2 1.2-19.3 3.6-6 2.4-11.4 5.9-15.9 10.2-4.6 4.4-8.2 9.6-10.9 15.7q-4 9.1-4 20c0 7 1.3 13.5 3.9 19.5q3.8 8.9 10.7 15.5c4.6 4.3 9.9 7.8 16.1 10.4 6.2 2.6 12.9 3.9 20.2 3.9q10.8 0 19.9-3.8c6.1-2.5 11.4-5.9 15.9-10.3 4.4-4.3 7.9-9.6 10.4-15.6 2.5-6.1 3.8-12.6 3.8-19.6 0-6.9-1.2-13.4-3.6-19.5-2.4-6.1-5.9-11.3-10.4-15.6-4.5-4.4-9.8-7.9-16.1-10.5-6.2-2.6-13.1-3.9-20.7-3.9z"/>
			<path fill="#ffffff" d="m2472.7 810.7h16.8l-99.8 176.9h-17.7l39.4-69.4-63.5-107.5h17.5l54.5 92.6z"/>
			<path fill="#ffdc00" d="m1385.5 989c-6.9 0-12.3-3.7-16.5-11.2-3.2-6.2-4.9-11.7-5-17.3l1.2-1.6v-1.2c-0.3-18.2 3.2-33.4 10.5-45.2l0.5-0.8v-7.3l-2-0.8c-4-1.7-8-2.5-11.9-2.5-8.4 0-16.9-4.4-26-13.5-8.3-8-13.9-16.2-16.7-24.5-0.3-1.9-2.2-4.4-7.8-10-4.5-4.5-5.2-7.1-5.2-8.3 0-1 2.1-4.8 3.2-6.9 2.2-4.1 3.3-4.7 3.4-4.8 0.7 0.1 3.7 0.6 10.8 3.7 7 3.1 8.2 4.5 8.5 4.8 1.4 2.7 1.7 6.1 0.8 10.6l-0.3 2.2 1.7 1.2c0.2 0.1 0.7 0.8 2 3.2 1.9 6.8 5.8 12.7 11.6 17.5 5.8 4.6 9.7 6.5 13.3 6.5h5.8c2.5 0 3.7-1.5 4.4-2.8q0.7 0.2 1.7 0.2c7.5 0 16.4-9.1 29.5-30.5 5.8-10.1 11.4-20.2 16.7-30 2 0.3 4.6 0.8 7.5 1.5 11.7 5.6 12 8.5 12 8.8 0 0.7-0.6 5-13 24-11.1 17.6-16.1 26-17.7 30.2-4.2 10.9-8.7 22-13.2 32.8-5.4 14-8.9 25.3-10.5 34.5-0.1 0.7-0.9 3.2-1.5 5.1-1.6 4.8-2.4 7.3-2.4 8.9v12.6c0 2.6 2.1 4.8 5.2 5.4 0.9 0.4 0.9 0.4 1.3 0.9 0.4 0.5 0.8 1 1.4 1.7-1.4 2.1-2.6 2.9-3.3 2.9z"/>
			<path fill-rule="evenodd" fill="#ffdc00" d="m1478.9 925.6c-8.7 0-16.8-4.4-24.3-13.1-7.6-8.8-11.5-17.4-11.5-25.5 0-12 5.5-22.7 16.7-32.7 10.4-9.3 21.8-14 33.9-14 0.4 0 3.9 0.4 11.1 2.2 11.1 2 12.5 2 13 2 1.1 0 6.6-0.3 16.7-1.3 10.8-1 15.6-1.3 16.5-1.3 8 0 16.6 3.3 26.5 10.1 11 7.4 16.6 15.8 16.6 25 0 16.4-17.3 29.5-51.4 38.7-23.1 6.6-44.5 9.9-63.8 9.9zm26-23.1c0.6 0 1.8 0.6 2.6 1 1.3 0.8 2.6 1.5 4.2 1.5 3.5 0 6.8-3.2 8.6-5v-0.1c14.9-3.2 24.9-5.7 30.5-7.6 3.5-1.2 9.8-4.5 18.3-9.6 3.6-2.1 5.7-5.6 5.7-9.9 0-1.1 0-3.5-8.4-9.7-7-5.6-9.7-6.4-11.6-6.4-1.7 0-2.9 0.5-3.7 1.3-0.2-0.1-0.5-0.3-0.7-0.4-1.1-0.8-2.6-1.9-4.8-1.9h-0.8-11l-1.2 15.2c-0.6 1.7-1.8 3.3-5.5 3.5-0.6-0.4-2-1.4-5.3-4.1-3.4-3.1-6.3-5.4-8.4-6.7l-1.1-0.7-1.3 0.3h-0.5c-0.5 0-0.7-0.1-0.7-0.1l-5.6-5.5 0.1 5.8c-1.9-1.8-3.5-2.5-5.2-2.5-4.4 0-11.2 3.3-20.9 10.2-10.1 7.3-14.8 12.9-14.8 17.8 0 7.4 3.7 16.1 21.6 16.1 1.4 0 5.3-0.4 10.5-1.3 5.2-0.9 8.7-1.2 9.4-1.2z"/>
			<path fill="#ffdc00" d="m1656 937.2c-1-0.1-7.4-1.6-11.1-2.5-8.8-2.7-15.7-9.6-21-21.1-4.4-9.6-6.5-18.1-6.5-26 0-1.7 0.6-6.5 4.7-20 4.2-14.5 7.2-16.1 7.2-16.1 2.7 0.1 5.7 2.1 8.6 6.2 2.8 4 3.6 6.1 3.9 7.2-0.7 1.4-2.1 4.8-4.3 10.3-3 7.5-4.4 15-4.4 22.7 0 11.4 8.3 20 19.4 20 9.3 0 21.1-8.1 36.2-24.9 10.8-12.1 17.1-20 19.1-24.2 2.6-4.7 4.7-10.8 6.6-16.5l0.2-0.4c0 0 0.3-6.5 0.4-7.1l0.1-0.1 0.1-1.1c0.2-1.5 0.9-3.1 2-4.6h1.1q0.2 0.5 0.5 0.8c0.6 0.9 1.7 1.8 3.8 1.8 1.6 0 2.6-0.6 3.2-1.2 1.1 0.7 4.7 4.8 8.8 29.4 3.9 23.6 9.4 34.6 17.3 34.6q1.3 0 2.4-0.3c2 2.2 5 5.2 8.7 8.5 2.6 2.3 4.2 4.4 4.3 6-5.2 3.5-7.2 4.7-7.9 5-7.9-0.1-15.7-3.3-23.1-9.5-6.7-5.8-11.8-13.1-15.1-21.6l-2.1-5.2-3.5 4.4c-12.2 15.4-19.5 24-24.5 29-11 10.9-20.3 16.5-27.7 16.5z"/>
			<path fill="#ffdc00" d="m1804.2 934.6c-1 0-6.6-1.4-11.3-28.9-5.1-32.1-7.2-42.4-8.3-46.2q0.7-1.8 0.7-4.1c0-3.7-1.1-8.7-3.1-15.1-1.2-4.1-2-6.7-2.6-8.3 0.3-0.9 1-3.3 2.8-9.1h6.5c7.1 3.9 10.5 9 10.5 15.8v7.7c0 4.8 0.5 8.4 1.4 11.3l0.5 1.4 1.3 0.6q1.2 0.5 2.5 0.5c3 0 6.1-1.9 10.2-6.5 7.9-7.8 11.3-10.7 12.7-11.7 1.3-1 6.4-2.4 9.5-3.3 3.9-1.1 6.4-1.8 7.9-2.7 14-6.9 27.1-10.5 39-10.5 1.1 0.1 8.7 1.7 29.6 7.4 0.7 2 1.7 3.9 3.2 5.6-2.2 3.4-4.6 3.4-5.4 3.4-1.9 0-4.2-0.8-7.7-2.3l-2.1-0.9-1.6 1.5c-0.8 0.9-1.3 2-1.6 3.7q-1.6-0.1-3.3-0.1c-14.9 0-30.7 4.9-48.1 14.9-23.3 13.2-34.5 28.9-34.2 48 0 0.4 0.2 1.9 0.4 3.8 0.4 3.3 0.9 8.2 0.9 11.2 0 11.4-5.5 12.9-10.3 12.9z"/>
		</g>
		<g>
			<g clip-path="url(#cp1)">
				<path fill="#000000" d="m3505.7 351.6h637.8v412h-637.8z"/>
				<path fill="#000000" d="m4093 457.7c0 148.2-120.1 268.4-268.4 268.4-148.3 0-268.5-120.2-268.5-268.4 0-37.1 7.6-72.4 21.1-104.5q2.6-6 5.4-11.9v8.1h484v-8.1q2.8 5.9 5.4 11.9c13.5 32.1 21 67.4 21 104.5z"/>
				<path fill="#000000" d="m4091 457.7c0 147.1-119.3 266.3-266.4 266.3-147.1 0-266.4-119.2-266.4-266.3 0-36.8 7.5-71.8 21-103.7q2.5-6 5.3-11.8v7.2h480.2v-7.2q2.8 5.8 5.3 11.8c13.5 31.9 21 66.9 21 103.7z"/>
				<path fill="#010101" d="m4088.9 457.7c0 145.9-118.4 264.2-264.3 264.2-145.9 0-264.3-118.3-264.3-264.2 0-36.5 7.4-71.3 20.8-102.9q2.5-5.9 5.3-11.7v6.3h476.4v-6.3q2.8 5.8 5.3 11.7c13.4 31.6 20.8 66.4 20.8 102.9z"/>
				<path fill="#010101" d="m4086.8 457.7c0 144.8-117.4 262.1-262.2 262.1-144.8 0-262.2-117.3-262.2-262.1 0-36.2 7.4-70.7 20.6-102.1q2.5-5.9 5.3-11.6v5.4h472.6v-5.4q2.8 5.7 5.3 11.6c13.2 31.4 20.6 65.9 20.6 102.1z"/>
				<path fill="#020202" d="m4084.7 457.7c0 143.6-116.5 260-260.1 260-143.6 0-260.1-116.4-260.1-260 0-35.9 7.3-70.1 20.5-101.3q2.4-5.8 5.2-11.5v4.5h468.8v-4.5q2.8 5.7 5.2 11.5c13.2 31.2 20.5 65.4 20.5 101.3z"/>
				<path fill="#020202" d="m4082.6 457.7c0 142.4-115.5 257.9-258 257.9-142.5 0-258-115.5-258-257.9 0-35.6 7.3-69.6 20.3-100.4q4.9-11.6 10.9-22.6v14.7h453.6v-14.7q6 11 10.9 22.6c13 30.8 20.3 64.8 20.3 100.4z"/>
				<path fill="#030303" d="m4080.5 457.7c0 141.3-114.6 255.8-255.9 255.8-141.3 0-255.9-114.5-255.9-255.8 0-35.4 7.2-69 20.1-99.6q4.9-11.5 10.8-22.4v13.7h450v-13.7q5.9 10.9 10.8 22.4c12.9 30.6 20.1 64.2 20.1 99.6z"/>
				<path fill="#030303" d="m4078.4 457.7c0 140.1-113.6 253.7-253.8 253.7-140.2 0-253.8-113.6-253.8-253.7 0-35.1 7.1-68.4 20-98.8q4.8-11.4 10.7-22.2v12.7h446.2v-12.7q5.9 10.8 10.7 22.2c12.9 30.4 20 63.7 20 98.8z"/>
				<path fill="#040404" d="m4076.3 457.7c0 139-112.7 251.6-251.7 251.6-139 0-251.7-112.6-251.7-251.6 0-34.8 7.1-67.9 19.8-98q4.8-11.3 10.6-22v11.7h442.6v-11.7q5.8 10.7 10.6 22c12.7 30.1 19.8 63.2 19.8 98z"/>
				<path fill="#040404" d="m4074.2 457.7c0 137.8-111.8 249.5-249.6 249.5-137.8 0-249.6-111.7-249.6-249.5 0-34.5 7-67.3 19.6-97.2q4.8-11.2 10.5-21.8v10.7h439v-10.7q5.7 10.6 10.5 21.8c12.6 29.9 19.6 62.7 19.6 97.2z"/>
				<path fill="#050505" d="m4072.1 457.7c0 136.7-110.8 247.5-247.5 247.5-136.7 0-247.5-110.8-247.5-247.5 0-34.2 6.9-66.7 19.5-96.4q4.7-11.1 10.4-21.6v9.7h435.2v-9.7q5.7 10.5 10.4 21.6c12.6 29.7 19.5 62.2 19.5 96.4z"/>
				<path fill="#060606" d="m4070 457.7c0 135.5-109.9 245.4-245.4 245.4-135.5 0-245.4-109.9-245.4-245.4 0-33.9 6.9-66.2 19.3-95.5q4.7-11.1 10.3-21.5v8.7h431.6v-8.7q5.6 10.4 10.3 21.5c12.4 29.3 19.3 61.6 19.3 95.5z"/>
				<path fill="#060606" d="m4067.9 457.7c0 134.3-108.9 243.3-243.3 243.3-134.4 0-243.3-109-243.3-243.3 0-33.6 6.8-65.6 19.1-94.7q4.7-10.9 10.3-21.3v7.7h427.8v-7.7q5.6 10.4 10.3 21.3c12.3 29.1 19.1 61.1 19.1 94.7z"/>
				<path fill="#070707" d="m4065.8 457.7c0 133.2-108 241.2-241.2 241.2-133.2 0-241.2-108-241.2-241.2 0-33.3 6.8-65.1 19-93.9q4.5-10.8 10.1-21.1v6.7h424.2v-6.7q5.5 10.3 10.1 21.1c12.2 28.8 19 60.6 19 93.9z"/>
				<path fill="#090909" d="m4063.7 457.7c0 132-107.1 239.1-239.1 239.1-132 0-239.1-107.1-239.1-239.1 0-33 6.7-64.5 18.8-93.1q4.5-10.7 10.1-20.9v5.7h420.4v-5.7q5.6 10.2 10.1 20.9c12.1 28.6 18.8 60.1 18.8 93.1z"/>
				<path fill="#090909" d="m4061.6 457.7c0 130.9-106.1 237-237 237-130.9 0-237-106.1-237-237 0-32.7 6.6-63.9 18.6-92.3q4.5-10.6 10-20.7v4.7h416.8v-4.7q5.5 10.1 10 20.7c12 28.4 18.6 59.6 18.6 92.3z"/>
				<path fill="#090909" d="m4059.5 457.7c0 129.7-105.2 234.9-234.9 234.9-129.7 0-234.9-105.2-234.9-234.9 0-32.5 6.6-63.4 18.5-91.5q4.4-10.5 9.9-20.5v3.7h413v-3.7q5.5 10 9.9 20.5c11.9 28.1 18.5 59 18.5 91.5z"/>
				<path fill="#0a0a0a" d="m4057.4 457.7c0 128.5-104.2 232.8-232.8 232.8-128.6 0-232.8-104.3-232.8-232.8 0-32.2 6.5-62.8 18.3-90.6q4.4-10.5 9.8-20.4v2.7h409.4v-2.7q5.4 9.9 9.8 20.4c11.8 27.8 18.3 58.4 18.3 90.6z"/>
				<path fill="#0a0a0a" d="m4055.3 457.7c0 127.4-103.3 230.7-230.7 230.7-127.4 0-230.7-103.3-230.7-230.7 0-31.9 6.5-62.2 18.1-89.8q4.4-10.4 9.7-20.2v1.7h405.8v-1.7q5.3 9.8 9.7 20.2c11.6 27.6 18.1 57.9 18.1 89.8z"/>
				<path fill="#0b0b0b" d="m4053.2 457.7c0 126.2-102.3 228.6-228.6 228.6-126.3 0-228.6-102.4-228.6-228.6 0-31.6 6.4-61.7 18-89q4.3-10.3 9.6-20v0.7h402v-0.7q5.3 9.7 9.6 20c11.6 27.3 18 57.4 18 89z"/>
				<path fill="#0c0c0c" d="m4051.1 457.7c0 125.1-101.4 226.5-226.5 226.5-125.1 0-226.5-101.4-226.5-226.5 0-31.3 6.3-61.1 17.8-88.2q4.3-10.2 9.5-19.8 2.6-4.8 5.5-9.5v9.2h387.4v-9.2q2.8 4.7 5.5 9.5 5.2 9.6 9.5 19.8c11.5 27.1 17.8 56.9 17.8 88.2z"/>
				<path fill="#0d0d0d" d="m4049 457.7c0 123.9-100.5 224.4-224.4 224.4-123.9 0-224.4-100.5-224.4-224.4 0-31 6.3-60.5 17.6-87.4q4.3-10 9.5-19.6 2.6-4.8 5.4-9.4v8.1h383.8v-8.1q2.8 4.6 5.4 9.4 5.2 9.6 9.5 19.6c11.3 26.9 17.6 56.4 17.6 87.4z"/>
				<path fill="#0d0d0d" d="m4046.9 457.7c0 122.8-99.5 222.3-222.3 222.3-122.8 0-222.3-99.5-222.3-222.3 0-30.7 6.2-60 17.5-86.6q4.2-9.9 9.3-19.4 2.6-4.7 5.4-9.3v7h380.2v-7q2.8 4.6 5.4 9.3 5.1 9.5 9.3 19.4c11.3 26.6 17.5 55.9 17.5 86.6z"/>
				<path fill="#0e0e0e" d="m4044.8 457.7c0 121.6-98.6 220.2-220.2 220.2-121.6 0-220.2-98.6-220.2-220.2 0-30.4 6.1-59.4 17.3-85.7 5.6-13.2 12.4-25.7 20.3-37.5v14.9h365.2v-14.9c7.9 11.8 14.7 24.3 20.3 37.5 11.1 26.3 17.3 55.3 17.3 85.7z"/>
				<path fill="#0e0e0e" d="m4042.7 457.7c0 120.4-97.6 218.1-218.1 218.1-120.5 0-218.1-97.7-218.1-218.1 0-30.1 6.1-58.8 17.1-84.9 5.5-13.1 12.3-25.5 20.1-37.1v13.7h361.8v-13.7c7.8 11.6 14.6 24 20.1 37.1 11 26.1 17.1 54.8 17.1 84.9z"/>
				<path fill="#101010" d="m4040.6 457.7c0 119.3-96.7 216-216 216-119.3 0-216-96.7-216-216 0-29.9 6-58.3 17-84.1 5.4-12.9 12.1-25.2 19.9-36.7v12.5h358.2v-12.5c7.8 11.5 14.5 23.8 19.9 36.7 11 25.8 17 54.2 17 84.1z"/>
				<path fill="#111111" d="m4038.5 457.7c0 118.1-95.8 213.9-213.9 213.9-118.1 0-213.9-95.8-213.9-213.9 0-29.6 6-57.7 16.8-83.3 5.4-12.8 12-25 19.7-36.3v11.3h354.8v-11.3c7.7 11.3 14.3 23.5 19.7 36.3 10.8 25.6 16.8 53.7 16.8 83.3z"/>
				<path fill="#121212" d="m4036.4 457.7c0 117-94.8 211.8-211.8 211.8-117 0-211.8-94.8-211.8-211.8 0-29.3 5.9-57.1 16.6-82.5 5.4-12.7 11.9-24.7 19.5-36v10.2h351.3v-10.2c7.7 11.3 14.2 23.3 19.6 36 10.7 25.4 16.6 53.2 16.6 82.5z"/>
				<path fill="#121212" d="m4034.3 457.7c0 115.8-93.9 209.7-209.7 209.7-115.8 0-209.7-93.9-209.7-209.7 0-29 5.8-56.6 16.5-81.7 5.3-12.5 11.7-24.4 19.3-35.6v9h347.8v-9c7.5 11.2 14 23.1 19.3 35.6 10.7 25.1 16.5 52.7 16.5 81.7z"/>
				<path fill="#131313" d="m4032.2 457.7c0 114.6-92.9 207.6-207.6 207.6-114.7 0-207.6-93-207.6-207.6 0-28.7 5.8-56 16.3-80.8 5.2-12.5 11.7-24.3 19.1-35.3v7.8h344.4v-7.8c7.4 11 13.9 22.8 19.1 35.3 10.5 24.8 16.3 52.1 16.3 80.8z"/>
				<path fill="#141414" d="m4030.1 457.7c0 113.5-92 205.5-205.5 205.5-113.5 0-205.5-92-205.5-205.5 0-28.4 5.7-55.4 16.1-80 5.2-12.3 11.6-24 19-34.9v6.6h340.8v-6.6c7.4 10.9 13.8 22.6 19 34.9 10.4 24.6 16.1 51.6 16.1 80z"/>
				<path fill="#161616" d="m4028 457.7c0 112.3-91 203.4-203.4 203.4-112.4 0-203.4-91.1-203.4-203.4 0-28.1 5.7-54.9 15.9-79.2 5.2-12.2 11.5-23.7 18.8-34.6v5.5h337.4v-5.5c7.3 10.9 13.6 22.4 18.7 34.6 10.3 24.3 16 51.1 16 79.2z"/>
				<path fill="#161616" d="m4025.9 457.7c0 111.2-90.1 201.3-201.3 201.3-111.2 0-201.3-90.1-201.3-201.3 0-27.8 5.6-54.3 15.8-78.4 5.1-12 11.3-23.5 18.5-34.2v4.3h334v-4.3c7.2 10.7 13.4 22.2 18.5 34.2 10.2 24.1 15.8 50.6 15.8 78.4z"/>
				<path fill="#171717" d="m4023.8 457.7c0 110-89.2 199.2-199.2 199.2-110 0-199.2-89.2-199.2-199.2 0-27.5 5.5-53.7 15.6-77.6 5.1-11.9 11.2-23.2 18.4-33.8v3.1h330.4v-3.1c7.2 10.6 13.3 21.9 18.4 33.8 10.1 23.9 15.6 50.1 15.6 77.6z"/>
				<path fill="#181818" d="m4021.7 457.7c0 108.9-88.2 197.1-197.1 197.1-108.9 0-197.1-88.2-197.1-197.1 0-27.2 5.5-53.2 15.4-76.8 5-11.8 11.1-23 18.2-33.5v2h327v-2c7.1 10.5 13.2 21.7 18.1 33.5 10 23.6 15.5 49.6 15.5 76.8z"/>
				<path fill="#181818" d="m4019.6 457.7c0 107.7-87.3 195-195 195-107.7 0-195-87.3-195-195 0-27 5.4-52.6 15.3-75.9 4.9-11.7 11-22.8 18-33.2v0.8h323.4v-0.8c7 10.4 13.1 21.5 18 33.2 9.9 23.3 15.3 48.9 15.3 75.9z"/>
				<path fill="#191919" d="m4017.5 457.7c0 106.5-86.3 192.9-192.9 192.9-106.6 0-193-86.4-193-192.9 0-26.7 5.4-52 15.2-75.1 4.9-11.6 10.9-22.5 17.8-32.8q5.2-7.7 11.1-14.9v14.5h297.8v-14.5q5.9 7.2 11.1 14.9c6.9 10.3 12.9 21.2 17.8 32.8 9.7 23.1 15.1 48.4 15.1 75.1z"/>
				<path fill="#1a1a1a" d="m4015.4 457.7c0 105.4-85.4 190.8-190.8 190.8-105.4 0-190.9-85.4-190.9-190.8 0-26.4 5.4-51.5 15-74.3 4.9-11.4 10.8-22.3 17.6-32.4q5.2-7.7 11-14.7v13.1h294.6v-13.1q5.8 7 11 14.7c6.8 10.1 12.7 21 17.6 32.4 9.6 22.8 14.9 47.9 14.9 74.3z"/>
				<path fill="#1b1b1b" d="m4013.4 457.7c0 104.2-84.6 188.7-188.8 188.7-104.2 0-188.8-84.5-188.8-188.7 0-26.1 5.3-50.9 14.9-73.5 4.8-11.3 10.6-22 17.4-32.1q5.1-7.5 10.8-14.5v11.8h291.3v-11.8q5.8 7 10.9 14.5c6.8 10.1 12.6 20.8 17.4 32.1 9.6 22.6 14.9 47.4 14.9 73.5z"/>
				<path fill="#1c1c1c" d="m4011.3 457.7c0 103.1-83.6 186.6-186.7 186.6-103.1 0-186.7-83.5-186.7-186.6 0-25.8 5.3-50.4 14.7-72.7 4.7-11.1 10.5-21.8 17.2-31.7q5.1-7.4 10.8-14.4v10.5h288v-10.5q5.7 7 10.8 14.4c6.7 9.9 12.5 20.6 17.2 31.7 9.4 22.3 14.7 46.9 14.7 72.7z"/>
				<path fill="#1c1c1c" d="m4009.2 457.7c0 101.9-82.7 184.5-184.6 184.5-101.9 0-184.6-82.6-184.6-184.5 0-25.5 5.2-49.8 14.5-71.9 4.7-11 10.4-21.5 17.1-31.3q4.9-7.4 10.6-14.2v9.1h284.8v-9.1q5.7 6.8 10.6 14.2c6.7 9.8 12.4 20.3 17.1 31.3 9.3 22.1 14.5 46.4 14.5 71.9z"/>
				<path fill="#1e1e1e" d="m4007.1 457.7c0 100.7-81.7 182.4-182.5 182.4-100.8 0-182.5-81.7-182.5-182.4 0-25.2 5.1-49.2 14.4-71 4.6-11 10.2-21.3 16.8-31q4.9-7.3 10.5-14.1v7.8h281.6v-7.8q5.6 6.8 10.5 14.1c6.6 9.7 12.2 20 16.8 31 9.3 21.8 14.4 45.8 14.4 71z"/>
				<path fill="#1f1f1f" d="m4005 457.7c0 99.6-80.8 180.3-180.4 180.3-99.6 0-180.4-80.7-180.4-180.3 0-24.9 5.1-48.7 14.2-70.2 4.6-10.8 10.2-21.1 16.6-30.7q4.9-7.2 10.4-13.9v6.5h278.4v-6.5q5.5 6.7 10.4 13.9c6.4 9.6 12 19.9 16.6 30.7 9.1 21.5 14.2 45.3 14.2 70.2z"/>
				<path fill="#202020" d="m4002.9 457.7c0 98.4-79.8 178.2-178.3 178.2-98.5 0-178.3-79.8-178.3-178.2 0-24.6 5-48.1 14-69.4 4.5-10.7 10.1-20.8 16.5-30.3q4.8-7.1 10.2-13.7v5.1h275.2v-5.1q5.4 6.6 10.2 13.7c6.4 9.5 11.9 19.6 16.5 30.3 9 21.3 14 44.8 14 69.4z"/>
				<path fill="#212121" d="m4000.8 457.7c0 97.3-78.9 176.1-176.2 176.1-97.3 0-176.2-78.8-176.2-176.1 0-24.4 5-47.5 13.9-68.6 4.4-10.5 9.9-20.6 16.2-29.9q4.8-7.1 10.2-13.6v3.8h271.8v-3.8q5.4 6.5 10.2 13.6c6.3 9.3 11.8 19.4 16.2 29.9 8.9 21.1 13.9 44.2 13.9 68.6z"/>
				<path fill="#222222" d="m3998.7 457.7c0 96.1-78 174-174.1 174-96.1 0-174.1-77.9-174.1-174 0-48.1 19.5-91.6 51-123.1v14.8h246.2v-14.8c31.5 31.5 51 75 51 123.1z"/>
				<path fill="#232323" d="m3996.6 457.7c0 95-77 171.9-172 171.9-95 0-172-76.9-172-171.9 0-47.5 19.3-90.5 50.4-121.6v13.3h243.2v-13.3c31.1 31.1 50.4 74.1 50.4 121.6z"/>
				<path fill="#242424" d="m3994.5 457.7c0 93.8-76.1 169.9-169.9 169.9-93.8 0-169.9-76.1-169.9-169.9 0-46.9 19-89.4 49.8-120.1v11.8h240.2v-11.8c30.8 30.7 49.8 73.2 49.8 120.1z"/>
				<path fill="#262626" d="m3992.4 457.7c0 92.6-75.1 167.8-167.8 167.8-92.7 0-167.8-75.2-167.8-167.8 0-46.4 18.8-88.3 49.2-118.7v10.4h237.2v-10.4c30.4 30.4 49.2 72.3 49.2 118.7z"/>
				<path fill="#262626" d="m3990.3 457.7c0 91.5-74.2 165.7-165.7 165.7-91.5 0-165.7-74.2-165.7-165.7 0-45.8 18.6-87.2 48.5-117.2v8.9h234.4v-8.9c29.9 30 48.5 71.4 48.5 117.2z"/>
				<path fill="#272727" d="m3988.2 457.7c0 90.3-73.3 163.6-163.6 163.6-90.3 0-163.6-73.3-163.6-163.6 0-45.2 18.3-86.1 47.9-115.7v7.4h231.4v-7.4c29.6 29.6 47.9 70.5 47.9 115.7z"/>
				<path fill="#282828" d="m3986.1 457.7c0 89.2-72.3 161.5-161.5 161.5-89.2 0-161.5-72.3-161.5-161.5 0-44.6 18.1-85 47.3-114.2v5.9h228.4v-5.9c29.2 29.2 47.3 69.6 47.3 114.2z"/>
				<path fill="#292929" d="m3984 457.7c0 88-71.4 159.4-159.4 159.4-88 0-159.4-71.4-159.4-159.4 0-44 17.8-83.9 46.7-112.7v4.4h225.4v-4.4c28.8 28.8 46.7 68.7 46.7 112.7z"/>
				<path fill="#2a2a2a" d="m3981.9 457.7c0 86.8-70.4 157.3-157.3 157.3-86.9 0-157.3-70.5-157.3-157.3 0-43.5 17.6-82.8 46.1-111.3v3h222.4v-3c28.5 28.5 46.1 67.8 46.1 111.3z"/>
				<path fill="#2b2b2b" d="m3979.8 457.7c0 85.7-69.5 155.2-155.2 155.2-85.7 0-155.2-69.5-155.2-155.2 0-42.9 17.4-81.7 45.5-109.8v1.5h219.4v-1.5c28.1 28.1 45.5 66.9 45.5 109.8z"/>
				<path fill="#2c2c2c" d="m3977.7 457.7c0 84.5-68.5 153.1-153.1 153.1-84.6 0-153.1-68.6-153.1-153.1 0-42.3 17.1-80.6 44.8-108.3q5.2-5.2 10.9-9.9v9.9h194.8v-9.9q5.7 4.7 10.9 9.9c27.7 27.7 44.8 66 44.8 108.3z"/>
				<path fill="#2d2d2d" d="m3975.6 457.7c0 83.4-67.6 151-151 151-83.4 0-151-67.6-151-151 0-41.7 16.9-79.5 44.2-106.8q5.1-5.1 10.7-9.7v8.2h192.1v-8.2q5.6 4.6 10.8 9.7c27.3 27.3 44.2 65.1 44.2 106.8z"/>
				<path fill="#2e2e2e" d="m3973.5 457.7c0 82.2-66.7 148.9-148.9 148.9-82.2 0-148.9-66.7-148.9-148.9 0-41.1 16.7-78.4 43.6-105.3 6.7-6.8 14.1-12.9 22-18.2v15.2h166.6v-15.2c7.9 5.3 15.3 11.4 22 18.2 26.9 26.9 43.6 64.2 43.6 105.3z"/>
				<path fill="#303030" d="m3971.4 457.7c0 81.1-65.7 146.8-146.8 146.8-81.1 0-146.8-65.7-146.8-146.8 0-40.6 16.4-77.3 43-103.8 6.6-6.7 13.9-12.7 21.7-18v13.5h164.2v-13.5c7.8 5.3 15.1 11.3 21.7 18 26.6 26.5 43 63.2 43 103.8z"/>
				<path fill="#303030" d="m3969.3 457.7c0 79.9-64.8 144.7-144.7 144.7-79.9 0-144.7-64.8-144.7-144.7 0-40 16.2-76.2 42.4-102.4 6.5-6.5 13.7-12.4 21.4-17.6v11.7h161.8v-11.7c7.7 5.2 14.9 11.1 21.4 17.6 26.2 26.2 42.4 62.4 42.4 102.4z"/>
				<path fill="#313131" d="m3967.2 457.7c0 78.7-63.8 142.6-142.6 142.6-78.8 0-142.6-63.9-142.6-142.6 0-39.4 15.9-75.1 41.8-100.9 6.4-6.4 13.5-12.3 21.1-17.4v10h159.4v-10c7.6 5.1 14.7 11 21.1 17.4 25.8 25.8 41.8 61.5 41.8 100.9z"/>
				<path fill="#323232" d="m3965.1 457.7c0 77.6-62.9 140.5-140.5 140.5-77.6 0-140.5-62.9-140.5-140.5 0-38.8 15.7-74 41.1-99.4 6.4-6.3 13.4-12.1 20.8-17.1v8.2h157.2v-8.2c7.4 5 14.4 10.8 20.8 17.1 25.4 25.4 41.1 60.6 41.1 99.4z"/>
				<path fill="#333333" d="m3963 457.7c0 76.4-62 138.4-138.4 138.4-76.5 0-138.4-62-138.4-138.4 0-38.3 15.5-72.9 40.5-97.9 6.3-6.3 13.1-11.9 20.5-16.9v6.5h154.8v-6.5c7.4 5 14.2 10.6 20.5 16.9 25 25 40.5 59.6 40.5 97.9z"/>
				<path fill="#343434" d="m3960.9 457.7c0 75.3-61 136.3-136.3 136.3-75.3 0-136.3-61-136.3-136.3 0-37.7 15.2-71.8 39.9-96.4 6.2-6.2 12.9-11.8 20.2-16.7v4.8h152.4v-4.8c7.3 4.9 14 10.5 20.2 16.7 24.7 24.6 39.9 58.7 39.9 96.4z"/>
				<path fill="#353535" d="m3958.8 457.7c0 74.1-60.1 134.2-134.2 134.2-74.1 0-134.2-60.1-134.2-134.2 0-37.1 15-70.6 39.3-94.9 12.1-12.2 26.6-22 42.7-28.8v15.4h104.4v-15.4c16.1 6.8 30.6 16.6 42.7 28.8 24.3 24.3 39.3 57.8 39.3 94.9z"/>
				<path fill="#363636" d="m3956.7 457.7c0 72.9-59.1 132.1-132.1 132.1-73 0-132.1-59.2-132.1-132.1 0-36.5 14.8-69.5 38.7-93.5 11.9-11.9 26.2-21.6 42-28.3v13.5h102.8v-13.5c15.8 6.7 30.1 16.4 42 28.3 23.9 24 38.7 57 38.7 93.5z"/>
				<path fill="#373737" d="m3954.6 457.7c0 71.8-58.2 130-130 130-71.8 0-130-58.2-130-130 0-35.9 14.5-68.4 38.1-92 11.7-11.7 25.7-21.3 41.3-27.8v11.5h101.2v-11.5c15.6 6.5 29.6 16.1 41.3 27.8 23.6 23.6 38.1 56.1 38.1 92z"/>
				<path fill="#383838" d="m3952.5 457.7c0 70.6-57.2 127.9-127.9 127.9-70.7 0-127.9-57.3-127.9-127.9 0-35.4 14.3-67.3 37.4-90.5 11.6-11.6 25.4-20.9 40.7-27.4v9.6h99.6v-9.6c15.3 6.5 29.1 15.8 40.7 27.4 23.1 23.2 37.4 55.1 37.4 90.5z"/>
				<path fill="#393939" d="m3950.4 457.7c0 69.5-56.3 125.8-125.8 125.8-69.5 0-125.8-56.3-125.8-125.8 0-34.8 14-66.2 36.8-89 11.4-11.4 25-20.6 40-27v7.7h98v-7.7c15 6.4 28.6 15.6 40 27 22.7 22.8 36.8 54.2 36.8 89z"/>
				<path fill="#3b3b3b" d="m3948.3 457.7c0 68.3-55.4 123.7-123.7 123.7-68.3 0-123.7-55.4-123.7-123.7 0-68.4 55.4-123.8 123.7-123.8 68.3 0 123.7 55.4 123.7 123.8z"/>
				<path fill="#3c3c3c" d="m3946.2 457.7c0 67.2-54.4 121.6-121.6 121.6-67.2 0-121.6-54.4-121.6-121.6 0-67.2 54.4-121.7 121.6-121.7 67.2 0 121.6 54.5 121.6 121.7z"/>
				<path fill="#3d3d3d" d="m3944.1 457.7c0 66-53.5 119.5-119.5 119.5-66 0-119.5-53.5-119.5-119.5 0-66 53.5-119.6 119.5-119.6 66 0 119.5 53.6 119.5 119.6z"/>
				<path fill="#3e3e3e" d="m3942 457.7c0 64.8-52.5 117.4-117.4 117.4-64.9 0-117.5-52.6-117.5-117.4 0-64.9 52.6-117.5 117.5-117.5 64.9 0 117.4 52.6 117.4 117.5z"/>
				<path fill="#3f3f3f" d="m3939.9 457.7c0 63.7-51.6 115.3-115.3 115.3-63.7 0-115.4-51.6-115.4-115.3 0-63.7 51.7-115.4 115.4-115.4 63.7 0 115.3 51.7 115.3 115.4z"/>
				<path fill="#404040" d="m3937.9 457.7c0 62.5-50.8 113.2-113.3 113.2-62.6 0-113.3-50.7-113.3-113.2 0-62.6 50.7-113.3 113.3-113.3 62.5 0 113.3 50.7 113.3 113.3z"/>
				<path fill="#414141" d="m3935.8 457.7c0 61.4-49.8 111.1-111.2 111.1-61.4 0-111.2-49.7-111.2-111.1 0-61.4 49.8-111.2 111.2-111.2 61.4 0 111.2 49.8 111.2 111.2z"/>
				<path fill="#424242" d="m3933.7 457.7c0 60.2-48.9 109-109.1 109-60.2 0-109.1-48.8-109.1-109 0-60.3 48.9-109.1 109.1-109.1 60.2 0 109.1 48.8 109.1 109.1z"/>
				<path fill="#434343" d="m3931.6 457.7c0 59-47.9 106.9-107 106.9-59.1 0-107-47.9-107-106.9 0-59.1 47.9-107 107-107 59.1 0 107 47.9 107 107z"/>
				<path fill="#444444" d="m3929.5 457.7c0 57.9-47 104.8-104.9 104.8-57.9 0-104.9-46.9-104.9-104.8 0-57.9 47-104.9 104.9-104.9 57.9 0 104.9 47 104.9 104.9z"/>
				<path fill="#464646" d="m3927.4 457.7c0 56.7-46 102.7-102.8 102.7-56.8 0-102.8-46-102.8-102.7 0-56.8 46-102.8 102.8-102.8 56.8 0 102.8 46 102.8 102.8z"/>
				<path fill="#474747" d="m3925.3 457.7c0 55.6-45.1 100.6-100.7 100.6-55.6 0-100.7-45-100.7-100.6 0-55.6 45.1-100.7 100.7-100.7 55.6 0 100.7 45.1 100.7 100.7z"/>
				<path fill="#474747" d="m3923.2 457.7c0 54.4-44.2 98.5-98.6 98.5-54.4 0-98.6-44.1-98.6-98.5 0-54.5 44.2-98.6 98.6-98.6 54.4 0 98.6 44.1 98.6 98.6z"/>
				<path fill="#494949" d="m3921.1 457.7c0 53.3-43.2 96.4-96.5 96.4-53.3 0-96.5-43.1-96.5-96.4 0-53.3 43.2-96.5 96.5-96.5 53.3 0 96.5 43.2 96.5 96.5z"/>
				<path fill="#4a4a4a" d="m3919 457.7c0 52.1-42.3 94.4-94.4 94.4-52.1 0-94.4-42.3-94.4-94.4 0-52.2 42.3-94.4 94.4-94.4 52.1 0 94.4 42.2 94.4 94.4z"/>
				<path fill="#4b4b4b" d="m3916.9 457.7c0 50.9-41.3 92.3-92.3 92.3-51 0-92.3-41.4-92.3-92.3 0-51 41.3-92.3 92.3-92.3 51 0 92.3 41.3 92.3 92.3z"/>
				<path fill="#4c4c4c" d="m3914.8 457.7c0 49.8-40.4 90.2-90.2 90.2-49.8 0-90.2-40.4-90.2-90.2 0-49.8 40.4-90.2 90.2-90.2 49.8 0 90.2 40.4 90.2 90.2z"/>
				<path fill="#4e4e4e" d="m3912.7 457.7c0 48.6-39.5 88.1-88.1 88.1-48.7 0-88.1-39.5-88.1-88.1 0-48.7 39.4-88.1 88.1-88.1 48.6 0 88.1 39.4 88.1 88.1z"/>
				<path fill="#4f4f4f" d="m3910.6 457.7c0 47.5-38.5 86-86 86-47.5 0-86-38.5-86-86 0-47.5 38.5-86 86-86 47.5 0 86 38.5 86 86z"/>
				<path fill="#505050" d="m3908.5 457.7c0 46.3-37.6 83.9-83.9 83.9-46.3 0-83.9-37.6-83.9-83.9 0-46.4 37.6-83.9 83.9-83.9 46.3 0 83.9 37.5 83.9 83.9z"/>
				<path fill="#515151" d="m3906.4 457.7c0 45.1-36.6 81.8-81.8 81.8-45.2 0-81.8-36.7-81.8-81.8 0-45.2 36.6-81.8 81.8-81.8 45.2 0 81.8 36.6 81.8 81.8z"/>
				<path fill="#525252" d="m3904.3 457.7c0 44-35.7 79.7-79.7 79.7-44 0-79.7-35.7-79.7-79.7 0-44 35.7-79.7 79.7-79.7 44 0 79.7 35.7 79.7 79.7z"/>
				<path fill="#535353" d="m3902.2 457.7c0 42.8-34.7 77.6-77.6 77.6-42.9 0-77.6-34.8-77.6-77.6 0-42.9 34.7-77.6 77.6-77.6 42.9 0 77.6 34.7 77.6 77.6z"/>
				<path fill="#555555" d="m3900.1 457.7c0 41.7-33.8 75.5-75.5 75.5-41.7 0-75.5-33.8-75.5-75.5 0-41.7 33.8-75.5 75.5-75.5 41.7 0 75.5 33.8 75.5 75.5z"/>
				<path fill="#565656" d="m3898 457.7c0 40.5-32.9 73.4-73.4 73.4-40.5 0-73.4-32.9-73.4-73.4 0-40.6 32.9-73.4 73.4-73.4 40.5 0 73.4 32.8 73.4 73.4z"/>
				<path fill="#575757" d="m3895.9 457.7c0 39.4-31.9 71.3-71.3 71.3-39.4 0-71.3-31.9-71.3-71.3 0-39.4 31.9-71.3 71.3-71.3 39.4 0 71.3 31.9 71.3 71.3z"/>
				<path fill="#595959" d="m3893.8 457.7c0 38.2-31 69.2-69.2 69.2-38.2 0-69.2-31-69.2-69.2 0-38.3 31-69.2 69.2-69.2 38.2 0 69.2 30.9 69.2 69.2z"/>
				<path fill="#595959" d="m3891.7 457.7c0 37-30 67.1-67.1 67.1-37.1 0-67.1-30.1-67.1-67.1 0-37.1 30-67.1 67.1-67.1 37.1 0 67.1 30 67.1 67.1z"/>
				<path fill="#5b5b5b" d="m3889.6 457.7c0 35.9-29.1 65-65 65-35.9 0-65-29.1-65-65 0-35.9 29.1-65 65-65 35.9 0 65 29.1 65 65z"/>
				<path fill="#5c5c5c" d="m3887.5 457.7c0 34.7-28.2 62.9-62.9 62.9-34.8 0-62.9-28.2-62.9-62.9 0-34.8 28.1-62.9 62.9-62.9 34.7 0 62.9 28.1 62.9 62.9z"/>
				<path fill="#5d5d5d" d="m3885.4 457.7c0 33.6-27.2 60.8-60.8 60.8-33.6 0-60.8-27.2-60.8-60.8 0-33.6 27.2-60.8 60.8-60.8 33.6 0 60.8 27.2 60.8 60.8z"/>
				<path fill="#5e5e5e" d="m3883.3 457.7c0 32.4-26.3 58.7-58.7 58.7-32.4 0-58.7-26.3-58.7-58.7 0-32.5 26.3-58.8 58.7-58.8 32.4 0 58.7 26.3 58.7 58.8z"/>
				<path fill="#5f5f5f" d="m3881.2 457.7c0 31.2-25.3 56.6-56.6 56.6-31.3 0-56.6-25.4-56.6-56.6 0-31.3 25.3-56.7 56.6-56.7 31.3 0 56.6 25.4 56.6 56.7z"/>
				<path fill="#616161" d="m3879.1 457.7c0 30.1-24.4 54.5-54.5 54.5-30.1 0-54.5-24.4-54.5-54.5 0-30.1 24.4-54.6 54.5-54.6 30.1 0 54.5 24.5 54.5 54.6z"/>
				<path fill="#626262" d="m3877 457.7c0 28.9-23.4 52.4-52.4 52.4-29 0-52.4-23.5-52.4-52.4 0-29 23.4-52.5 52.4-52.5 29 0 52.4 23.5 52.4 52.5z"/>
				<path fill="#636363" d="m3874.9 457.7c0 27.8-22.5 50.3-50.3 50.3-27.8 0-50.3-22.5-50.3-50.3 0-27.8 22.5-50.4 50.3-50.4 27.8 0 50.3 22.6 50.3 50.4z"/>
				<path fill="#646464" d="m3872.8 457.7c0 26.6-21.6 48.2-48.2 48.2-26.6 0-48.2-21.6-48.2-48.2 0-26.7 21.6-48.3 48.2-48.3 26.6 0 48.2 21.6 48.2 48.3z"/>
				<path fill="#666666" d="m3870.7 457.7c0 25.5-20.6 46.1-46.1 46.1-25.5 0-46.1-20.6-46.1-46.1 0-25.5 20.6-46.2 46.1-46.2 25.5 0 46.1 20.7 46.1 46.2z"/>
				<path fill="#676767" d="m3868.6 457.7c0 24.3-19.7 44-44 44-24.3 0-44-19.7-44-44 0-24.4 19.7-44.1 44-44.1 24.3 0 44 19.7 44 44.1z"/>
				<path fill="#686868" d="m3866.5 457.7c0 23.1-18.7 41.9-41.9 41.9-23.2 0-41.9-18.8-41.9-41.9 0-23.2 18.7-42 41.9-42 23.2 0 41.9 18.8 41.9 42z"/>
				<path fill="#696969" d="m3864.4 457.7c0 22-17.8 39.8-39.8 39.8-22 0-39.9-17.8-39.9-39.8 0-22 17.9-39.9 39.9-39.9 22 0 39.8 17.9 39.8 39.9z"/>
				<path fill="#6a6a6a" d="m3862.3 457.7c0 20.8-16.9 37.7-37.7 37.7-20.9 0-37.8-16.9-37.8-37.7 0-20.9 16.9-37.8 37.8-37.8 20.8 0 37.7 16.9 37.7 37.8z"/>
				<path fill="#6c6c6c" d="m3860.3 457.7c0 19.7-16 35.6-35.7 35.6-19.7 0-35.7-15.9-35.7-35.6 0-19.7 16-35.7 35.7-35.7 19.7 0 35.7 16 35.7 35.7z"/>
				<path fill="#6d6d6d" d="m3858.2 457.7c0 18.5-15.1 33.5-33.6 33.5-18.5 0-33.6-15-33.6-33.5 0-18.6 15.1-33.6 33.6-33.6 18.5 0 33.6 15 33.6 33.6z"/>
				<path fill="#6e6e6e" d="m3856.1 457.7c0 17.3-14.1 31.4-31.5 31.4-17.4 0-31.5-14.1-31.5-31.4 0-17.4 14.1-31.5 31.5-31.5 17.4 0 31.5 14.1 31.5 31.5z"/>
				<path fill="#707070" d="m3854 457.7c0 16.2-13.2 29.3-29.4 29.3-16.2 0-29.4-13.1-29.4-29.3 0-16.2 13.2-29.4 29.4-29.4 16.2 0 29.4 13.2 29.4 29.4z"/>
				<path fill="#717171" d="m3851.9 457.7c0 15-12.2 27.2-27.3 27.2-15.1 0-27.3-12.2-27.3-27.2 0-15.1 12.2-27.3 27.3-27.3 15.1 0 27.3 12.2 27.3 27.3z"/>
				<path fill="#727272" d="m3849.8 457.7c0 13.9-11.3 25.1-25.2 25.1-13.9 0-25.2-11.2-25.2-25.1 0-13.9 11.3-25.2 25.2-25.2 13.9 0 25.2 11.3 25.2 25.2z"/>
				<path fill="#737373" d="m3847.7 457.7c0 12.7-10.4 23-23.1 23-12.7 0-23.1-10.3-23.1-23 0-12.8 10.4-23.1 23.1-23.1 12.7 0 23.1 10.3 23.1 23.1z"/>
				<path fill="#747474" d="m3845.6 457.7c0 11.6-9.4 20.9-21 20.9-11.6 0-21-9.3-21-20.9 0-11.6 9.4-21 21-21 11.6 0 21 9.4 21 21z"/>
				<path fill="#767676" d="m3843.5 457.7c0 10.4-8.5 18.8-18.9 18.8-10.4 0-18.9-8.4-18.9-18.8 0-10.5 8.5-18.9 18.9-18.9 10.4 0 18.9 8.4 18.9 18.9z"/>
				<path fill="#777777" d="m3841.4 457.7c0 9.2-7.5 16.8-16.8 16.8-9.3 0-16.8-7.6-16.8-16.8 0-9.3 7.5-16.8 16.8-16.8 9.3 0 16.8 7.5 16.8 16.8z"/>
				<path fill="#787878" d="m3839.3 457.7c0 8.1-6.6 14.7-14.7 14.7-8.1 0-14.7-6.6-14.7-14.7 0-8.1 6.6-14.7 14.7-14.7 8.1 0 14.7 6.6 14.7 14.7z"/>
				<path fill="#7a7a7a" d="m3837.2 457.7c0 6.9-5.7 12.6-12.6 12.6-7 0-12.6-5.7-12.6-12.6 0-7 5.6-12.6 12.6-12.6 6.9 0 12.6 5.6 12.6 12.6z"/>
				<path fill="#7b7b7b" d="m3835.1 457.7c0 5.8-4.7 10.5-10.5 10.5-5.8 0-10.5-4.7-10.5-10.5 0-5.8 4.7-10.5 10.5-10.5 5.8 0 10.5 4.7 10.5 10.5z"/>
				<path fill="#7c7c7c" d="m3833 457.7c0 4.6-3.8 8.4-8.4 8.4-4.6 0-8.4-3.8-8.4-8.4 0-4.7 3.8-8.4 8.4-8.4 4.6 0 8.4 3.7 8.4 8.4z"/>
				<path fill="#7d7d7d" d="m3830.9 457.7c0 3.4-2.8 6.3-6.3 6.3-3.5 0-6.3-2.9-6.3-6.3 0-3.5 2.8-6.3 6.3-6.3 3.5 0 6.3 2.8 6.3 6.3z"/>
				<path fill="#7f7f7f" d="m3828.8 457.7c0 2.3-1.9 4.2-4.2 4.2-2.3 0-4.2-1.9-4.2-4.2 0-2.3 1.9-4.2 4.2-4.2 2.3 0 4.2 1.9 4.2 4.2z"/>
				<path fill="#808080" d="m3826.7 457.7c0 1.1-0.9 2.1-2.1 2.1-1.2 0-2.1-1-2.1-2.1 0-1.2 0.9-2.1 2.1-2.1 1.2 0 2.1 0.9 2.1 2.1z"/>
			</g>
			<path fill-rule="evenodd" fill="#dbdbdb" d="m3901.2 769.2h-153.6v-167.8l-255.4-255.4h130.7l201.7 201.7 201.7-201.7h130.7l-255.8 255.8zm-142.4-11.2h131.3v-160.9l1.6-1.7 238.3-238.3h-99.1l-204 204h-4.6l-1.7-1.6-202.3-202.4h-99.1l239.6 239.6z"/>
			<g>
				<path fill-rule="evenodd" fill="#ffffff" d="m4919.1 463.6q4 0 6.7 1.6 2.7 1.6 5.4 6.3l34.6 62.9q0.5 1.1 0.3 1.8-0.3 0.7-1.6 0.7h-13.3q-1.7 0-2.4-1.4l-7.4-13.5h-49.2l-7.2 13.5q-0.7 1.4-2.4 1.4h-13.6q-1.4 0-1.6-0.7-0.3-0.7 0.2-1.8l34.4-62.9q2.6-4.7 5.1-6.3 2.5-1.6 5.8-1.6zm-20.3 46.3h36l-16.6-30.7q-0.4-0.7-1.2-0.7h-0.6q-0.7 0-1.1 0.7z"/>
				<path fill="#ffffff" d="m4994.3 463.6q2.3 0 2.3 2.3v41.8q0 4.1 0.6 6.9 0.7 2.8 2.3 4.4 1.6 1.6 4.2 2.3 2.7 0.7 6.8 0.7h42.4q2.3 0 2.3 2.3v10.3q0 2.3-2.3 2.3h-43q-8 0-13.5-1.5-5.6-1.5-9.1-4.8-3.5-3.3-5.1-8.6-1.7-5.2-1.6-12.8v-43.3q-0.1-2.3 2.4-2.3z"/>
				<path fill-rule="evenodd" fill="#ffffff" d="m5135.7 463.6q7.9 0 13.5 1.5 5.6 1.5 9.1 4.8 3.5 3.3 5.1 8.6 1.6 5.2 1.6 12.7v16.2q0 12.8-4.8 19.3-4.8 6.4-15.9 7.9l12.1 16.6q0.4 0.5 0.2 1.6-0.1 1-1.6 1h-13.4q-1.3 0-1.9-0.3-0.5-0.3-1-0.9l-12-17.5h-23.4q-7.9 0-13.5-1.5-5.5-1.5-9-4.8-3.5-3.2-5.2-8.5-1.6-5.3-1.6-12.9v-16.2q0-7.5 1.6-12.7 1.7-5.3 5.2-8.6 3.5-3.3 9-4.8 5.6-1.5 13.5-1.5zm-45.6 42.7q0 4.1 0.7 6.9 0.6 2.7 2.2 4.3 1.6 1.7 4.3 2.3 2.6 0.7 6.7 0.7h31.1q4.1 0 6.7-0.7 2.7-0.6 4.3-2.3 1.5-1.6 2.2-4.3 0.7-2.8 0.7-6.9v-13.9q0-4.1-0.7-6.9-0.7-2.8-2.2-4.4-1.6-1.6-4.3-2.3-2.6-0.7-6.7-0.7h-31.1q-4.1 0-6.7 0.7-2.7 0.7-4.3 2.3-1.6 1.6-2.2 4.4-0.7 2.8-0.7 6.9z"/>
				<path fill="#ffffff" d="m5201.7 463.6q2.3 0 2.3 2.3v41.8q0 4.1 0.7 6.9 0.7 2.8 2.2 4.4 1.6 1.6 4.3 2.3 2.6 0.7 6.7 0.7h29q4.1 0 6.8-0.7 2.6-0.7 4.2-2.3 1.6-1.6 2.2-4.4 0.6-2.8 0.6-6.9v-41.8q0-2.3 2.3-2.3h11.4q2.3 0 2.3 2.3v43.3q0 7.6-1.5 12.8-1.6 5.3-5.1 8.6-3.5 3.3-9.1 4.8-5.6 1.5-13.6 1.5h-30.1q-8 0-13.5-1.5-5.6-1.5-9.1-4.8-3.5-3.3-5.1-8.6-1.6-5.2-1.6-12.8v-43.3q0-2.3 2.4-2.3z"/>
				<path fill="#ffffff" d="m5314.4 463.6q2.3 0 2.3 2.3v68.7q0 2.3-2.3 2.3h-11.3q-2.4 0-2.4-2.3v-68.7q0-2.3 2.4-2.3z"/>
				<path fill="#ffffff" d="m5354.4 463.6q2.3 0 2.3 2.3v41.8q0 4.1 0.7 6.9 0.6 2.8 2.2 4.4 1.6 1.6 4.3 2.3 2.6 0.7 6.7 0.7h42.4q2.3 0 2.3 2.3v10.3q0 2.3-2.3 2.3h-43q-8 0-13.5-1.5-5.6-1.5-9.1-4.8-3.5-3.3-5.1-8.6-1.6-5.2-1.6-12.8v-43.3q0-2.3 2.4-2.3z"/>
				<path fill="#ffffff" d="m5509.5 463.6q2.4 0 2.4 2.3v9.9q0 2.3-2.4 2.3h-45.7q-4.1 0-6.8 0.7-2.7 0.7-4.3 2.3-1.6 1.6-2.2 4.4-0.7 2.8-0.7 6.9v1h59.2q2.3 0 2.3 2.3v8.3q0 2.3-2.3 2.3h-59.2v1.8q0 4.1 0.7 6.8 0.6 2.8 2.2 4.4 1.6 1.6 4.3 2.3 2.7 0.7 6.8 0.7h45.7q2.4 0 2.4 2.3v10q0 2.3-2.4 2.3h-46.1q-7.9 0-13.5-1.5-5.5-1.5-9-4.8-3.5-3.3-5.1-8.6-1.7-5.2-1.7-12.8v-18q0-7.5 1.7-12.7 1.6-5.3 5.1-8.6 3.5-3.3 9-4.8 5.6-1.5 13.5-1.5z"/>
				<path fill-rule="evenodd" fill="#ffffff" d="m5593.5 463.6q12.1 0 17.3 5.4 5.2 5.5 5.2 16.2v5.9q0 9-3.6 14.3-3.7 5.2-12 6.7l17.9 22.1q0.6 0.6 0.3 1.6-0.2 1.1-1.6 1.1h-13.5q-1.4 0-1.9-0.4-0.5-0.3-1.1-1l-16.5-21.8h-33.8v20.9q0 2.3-2.3 2.3h-11.3q-2.4 0-2.4-2.3v-67.9q0-3.1 3.1-3.1zm-43.3 37.4h40.1q5.3 0 7.5-2.3 2.2-2.3 2.2-7.1v-4.4q0-4.7-2.2-7-2.2-2.3-7.5-2.3h-38.7q-1.4 0-1.4 1.3z"/>
				<path fill-rule="evenodd" fill="#ffffff" d="m5736.6 463.6q8.5 0 14.5 1.7 6.1 1.7 10 5.4 3.9 3.6 5.7 9.2 1.8 5.6 1.8 13.2v14.2q0 7.7-1.8 13.3-1.8 5.6-5.7 9.2-3.9 3.6-10 5.3-6 1.8-14.5 1.8h-49q-3.1 0-3.1-3.2v-67q0-3.1 3.1-3.1zm-36.1 57.3q0 1.4 1.4 1.4h34.3q4.6 0 7.7-0.8 3.2-0.9 5.1-2.7 2-1.9 2.8-5.1 0.8-3.1 0.8-7.7v-11.5q0-4.6-0.8-7.8-0.8-3.1-2.8-5-1.9-1.9-5.1-2.7-3.1-0.9-7.7-0.9h-34.3q-1.4 0-1.4 1.5z"/>
				<path fill="#ffffff" d="m5866.5 463.6q2.4 0 2.4 2.3v9.9q0 2.3-2.4 2.3h-45.8q-4 0-6.7 0.7-2.7 0.7-4.3 2.3-1.6 1.6-2.3 4.4-0.6 2.8-0.6 6.9v1h59.2q2.3 0 2.3 2.3v8.3q0 2.3-2.3 2.3h-59.2v1.8q0 4.1 0.6 6.8 0.7 2.8 2.3 4.4 1.6 1.6 4.3 2.3 2.7 0.7 6.7 0.7h45.8q2.4 0 2.4 2.3v10q0 2.3-2.4 2.3h-46.1q-7.9 0-13.5-1.5-5.5-1.5-9-4.8-3.5-3.3-5.2-8.6-1.6-5.2-1.6-12.8v-18q0-7.5 1.6-12.7 1.7-5.3 5.2-8.6 3.5-3.3 9-4.8 5.6-1.5 13.5-1.5z"/>
				<path fill-rule="evenodd" fill="#ffffff" d="m4919.1 578.4q4 0 6.7 1.6 2.7 1.6 5.4 6.3l34.6 62.9q0.5 1.1 0.3 1.7-0.3 0.7-1.6 0.7h-13.3q-1.7 0-2.4-1.3l-7.4-13.5h-49.2l-7.2 13.5q-0.7 1.3-2.4 1.3h-13.6q-1.4 0-1.6-0.7-0.3-0.6 0.2-1.7l34.4-62.9q2.6-4.7 5.1-6.3 2.5-1.6 5.8-1.6zm-20.3 46.2h36l-16.6-30.6q-0.4-0.8-1.2-0.8h-0.6q-0.7 0-1.1 0.8z"/>
				<path fill="#ffffff" d="m4984 578.4q2.3 0 2.3 2.3v41.7q0 4.2 0.7 7 0.7 2.8 2.2 4.4 1.6 1.6 4.3 2.3 2.6 0.7 6.7 0.7h29q4.1 0 6.8-0.7 2.6-0.7 4.2-2.3 1.6-1.6 2.2-4.4 0.6-2.8 0.6-7v-41.7q0-2.3 2.3-2.3h11.4q2.3 0 2.3 2.3v43.3q0 7.5-1.5 12.8-1.6 5.3-5.1 8.6-3.5 3.3-9.1 4.8-5.6 1.4-13.6 1.4h-30.1q-8 0-13.5-1.4-5.6-1.5-9.1-4.8-3.5-3.3-5.1-8.6-1.6-5.3-1.6-12.8v-43.3q0-2.3 2.4-2.3z"/>
				<path fill="#ffffff" d="m5152.4 578.4q2.4 0 2.4 2.3v10.2q0 2.4-2.4 2.4h-32.9v56q0 2.3-2.3 2.3h-11.4q-2.3 0-2.3-2.3v-56h-32.8q-2.4 0-2.4-2.4v-10.2q0-2.3 2.4-2.3z"/>
				<path fill-rule="evenodd" fill="#ffffff" d="m5222.8 578.4q8 0 13.6 1.5 5.6 1.5 9.1 4.8 3.5 3.3 5.1 8.5 1.5 5.3 1.5 12.8v18q0 7.5-1.5 12.8-1.6 5.3-5.1 8.6-3.5 3.3-9.1 4.8-5.6 1.4-13.6 1.4h-32.3q-8 0-13.5-1.4-5.6-1.5-9.1-4.8-3.5-3.3-5.1-8.6-1.6-5.3-1.6-12.8v-18q0-7.5 1.6-12.8 1.6-5.2 5.1-8.5 3.5-3.3 9.1-4.8 5.5-1.5 13.5-1.5zm-45.6 44.4q0 4.1 0.6 6.9 0.7 2.8 2.3 4.4 1.6 1.6 4.2 2.3 2.7 0.7 6.8 0.7h31.1q4 0 6.7-0.7 2.7-0.7 4.3-2.3 1.5-1.6 2.2-4.4 0.7-2.8 0.7-6.9v-15.7q0-4-0.7-6.8-0.7-2.8-2.2-4.4-1.6-1.6-4.3-2.3-2.7-0.7-6.7-0.7h-31.1q-4.1 0-6.8 0.7-2.6 0.7-4.2 2.3-1.6 1.6-2.3 4.4-0.6 2.8-0.6 6.8z"/>
				<path fill="#ffffff" d="m5285.8 578.4q2.3 0 4 0.3 1.7 0.3 2.9 1.2 1.3 0.9 2.3 2.4 1 1.5 2 4l21.8 50.2q0.4 1 1.5 1h1.2q1.1 0 1.5-1l21.8-50.2q1-2.5 2-4 1-1.5 2.2-2.4 1.3-0.9 2.9-1.2 1.6-0.3 4-0.3h11.2q5.4 0 7.3 2.4 1.9 2.5 1.9 8.4v60.1q0 2.3-2.4 2.3h-10.7q-2.3 0-2.3-2.3v-54.6q0-1.1-0.9-1.1h-0.9q-1.1 0-1.4 0.9l-21.1 46.9q-1.3 2.8-2.6 4.7-1.3 2-2.8 3.2-1.5 1.3-3.4 1.8-2 0.5-4.6 0.5h-5q-2.6 0-4.6-0.5-1.9-0.5-3.4-1.8-1.5-1.2-2.9-3.2-1.3-1.9-2.5-4.7l-21.2-46.9q-0.3-0.9-1.3-0.9h-1q-0.8 0-0.8 1.1v54.6q0 2.3-2.3 2.3h-10.7q-2.4 0-2.4-2.3v-60.1q0-5.9 1.9-8.4 1.9-2.4 7.4-2.4z"/>
				<path fill-rule="evenodd" fill="#ffffff" d="m5450.9 578.4q7.9 0 13.5 1.5 5.6 1.5 9.1 4.8 3.5 3.3 5.1 8.5 1.6 5.3 1.6 12.8v18q0 7.5-1.6 12.8-1.6 5.3-5.1 8.6-3.5 3.3-9.1 4.8-5.6 1.4-13.5 1.4h-32.4q-7.9 0-13.5-1.4-5.5-1.5-9-4.8-3.5-3.3-5.1-8.6-1.7-5.3-1.7-12.8v-18q0-7.5 1.7-12.8 1.6-5.2 5.1-8.5 3.5-3.3 9-4.8 5.6-1.5 13.5-1.5zm-45.6 44.4q0 4.1 0.7 6.9 0.7 2.8 2.2 4.4 1.6 1.6 4.3 2.3 2.6 0.7 6.7 0.7h31.1q4.1 0 6.8-0.7 2.6-0.7 4.2-2.3 1.6-1.6 2.3-4.4 0.6-2.8 0.6-6.9v-15.7q0-4-0.6-6.8-0.7-2.8-2.3-4.4-1.6-1.6-4.2-2.3-2.7-0.7-6.8-0.7h-31.1q-4.1 0-6.7 0.7-2.7 0.7-4.3 2.3-1.5 1.6-2.2 4.4-0.7 2.8-0.7 6.8zm42.6-67q1.2 0 1.7 0.5 0.5 0.5-0.2 1.4l-10.7 15.4q-0.6 1.1-1.3 1.5-0.7 0.5-1.8 0.5h-8q-1.1 0-1.7-0.5-0.5-0.5 0.1-1.5l9.3-15.4q1.2-1.9 3.3-1.9z"/>
				<path fill="#ffffff" d="m5498.5 578.4q1 0 1.5 0.3 0.5 0.3 0.9 1l30.7 56.3q0.3 0.8 1.2 0.8h0.6q0.7 0 1.1-0.8l30.2-56.3q0.7-1.3 2.5-1.3h13.7q1.2 0 1.5 0.6 0.2 0.7-0.3 1.8l-34.3 62.9q-2.6 4.8-5.1 6.4-2.5 1.5-5.9 1.5h-6.1q-4 0-6.7-1.5-2.7-1.6-5.3-6.4l-34.7-62.9q-0.6-1.1-0.3-1.8 0.3-0.6 1.6-0.6z"/>
				<path fill="#ffffff" d="m5604.7 578.4q2.3 0 2.3 2.3v68.6q0 2.3-2.3 2.3h-11.3q-2.4 0-2.4-2.3v-68.6q0-2.3 2.4-2.3z"/>
				<path fill="#ffffff" d="m5634.4 578.4q2.4 0 2.4 2.3v41.7q0 4.2 0.6 7 0.7 2.8 2.3 4.4 1.6 1.6 4.2 2.3 2.7 0.7 6.8 0.7h42.4q2.3 0 2.3 2.3v10.2q0 2.3-2.3 2.3h-43.1q-7.9 0-13.5-1.4-5.5-1.5-9-4.8-3.5-3.3-5.1-8.6-1.7-5.3-1.7-12.8v-43.3q0-2.3 2.4-2.3z"/>
				<path fill="#ffffff" d="m5779.3 578.4q2.4 0 2.4 2.3v9.9q0 2.3-2.4 2.3h-45.7q-4.1 0-6.8 0.7-2.7 0.7-4.3 2.3-1.6 1.6-2.2 4.4-0.7 2.8-0.7 6.8v1.1h59.2q2.3 0 2.3 2.3v8.3q0 2.3-2.3 2.3h-59.2v1.7q0 4.1 0.7 6.9 0.6 2.8 2.2 4.4 1.6 1.6 4.3 2.3 2.7 0.7 6.8 0.7h45.7q2.4 0 2.4 2.3v9.9q0 2.3-2.4 2.3h-46.1q-7.9 0-13.5-1.4-5.5-1.5-9-4.8-3.5-3.3-5.1-8.6-1.7-5.3-1.7-12.8v-18q0-7.5 1.7-12.8 1.6-5.2 5.1-8.5 3.5-3.3 9-4.8 5.6-1.5 13.5-1.5z"/>
				<path fill="#ffffff" d="m5866.5 578.4q2.3 0 2.3 2.3v9.9q0 2.3-2.3 2.3h-52.5q-3 0-4.2 1.6-1.3 1.5-1.3 4.3v3.5q0 5.9 5.4 5.9h39.3q9.1 0 13.7 4.6 4.6 4.7 4.6 13.4v8.4q0 7.6-4.5 12.3-4.5 4.7-14 4.7h-58q-2.4 0-2.4-2.3v-9.9q0-2.3 2.4-2.3h54.9q3.1 0 4.3-1.6 1.3-1.6 1.3-4.3v-4.3q0-5.8-5.5-5.8h-39.2q-9.1 0-13.7-4.7-4.6-4.7-4.6-13.3v-7.7q0-7.6 4.5-12.3 4.5-4.7 14-4.7z"/>
			</g>
			<g clip-path="url(#cp2)">
				<path fill="#000000" d="m3008.9 351.6h496.8v412h-496.8z"/>
				<path fill="#000000" d="m3485.5 483.8c0 126.1-102.2 228.2-228.2 228.2-126 0-228.2-102.1-228.2-228.2 0-31.5 6.4-61.5 17.9-88.8 5.8-13.6 12.9-26.6 21.1-38.7q6.1-9.2 13.1-17.6v10.7h352.2v-10.7q7 8.4 13.1 17.6c8.2 12.1 15.3 25.1 21.1 38.7 11.5 27.3 17.9 57.3 17.9 88.8z"/>
				<path fill="#000000" d="m3483.7 483.8c0 125.1-101.4 226.5-226.4 226.5-125.1 0-226.4-101.4-226.4-226.5 0-31.2 6.3-61 17.8-88.1 5.7-13.5 12.7-26.4 20.8-38.4q6.2-9.1 13.1-17.5v9.6h349.4v-9.6q6.9 8.4 13 17.5c8.2 12 15.2 24.9 20.9 38.4 11.5 27.1 17.8 56.9 17.8 88.1z"/>
				<path fill="#010101" d="m3481.9 483.8c0 124.1-100.5 224.7-224.6 224.7-124.1 0-224.6-100.6-224.6-224.7 0-31 6.2-60.5 17.6-87.4 5.7-13.4 12.7-26.2 20.7-38.1q6.1-9 13-17.3v8.4h346.6v-8.4q6.9 8.3 13 17.3c8 11.9 15 24.7 20.7 38.1 11.3 26.9 17.6 56.4 17.6 87.4z"/>
				<path fill="#010101" d="m3480.1 483.8c0 123.1-99.7 222.9-222.8 222.9-123.1 0-222.9-99.8-222.9-222.9 0-30.7 6.3-60 17.6-86.7 5.6-13.3 12.5-26 20.5-37.9q6-8.8 12.8-17.1v7.3h344v-7.3q6.8 8.3 12.8 17.1c8 11.9 14.9 24.6 20.5 37.9 11.3 26.7 17.5 56 17.5 86.7z"/>
				<path fill="#020202" d="m3478.4 483.8c0 122.1-99 221.1-221.1 221.1-122.1 0-221.1-99-221.1-221.1 0-30.5 6.2-59.6 17.4-86 5.6-13.2 12.4-25.8 20.4-37.6q5.9-8.8 12.7-17v6.2h341.2v-6.2q6.7 8.2 12.7 17c8 11.8 14.8 24.4 20.4 37.6 11.2 26.4 17.4 55.5 17.4 86z"/>
				<path fill="#020202" d="m3476.6 483.8c0 121.2-98.2 219.3-219.3 219.3-121.1 0-219.3-98.1-219.3-219.3 0-30.2 6.1-59.1 17.2-85.3 5.6-13.1 12.4-25.6 20.3-37.3q5.9-8.7 12.6-16.8v5h338.4v-5q6.7 8.1 12.6 16.8c7.9 11.7 14.7 24.2 20.2 37.3 11.1 26.2 17.3 55.1 17.3 85.3z"/>
				<path fill="#030303" d="m3474.8 483.8c0 120.2-97.4 217.5-217.5 217.5-120.1 0-217.5-97.3-217.5-217.5 0-30 6.1-58.6 17.1-84.6 5.5-13 12.2-25.4 20-37q5.9-8.6 12.6-16.7v3.9h335.6v-3.9q6.7 8.1 12.6 16.7c7.8 11.6 14.5 24 20 37 11 26 17.1 54.6 17.1 84.6z"/>
				<path fill="#030303" d="m3473 483.8c0 119.2-96.6 215.8-215.7 215.8-119.1 0-215.7-96.6-215.7-215.8 0-29.7 6-58.1 16.9-83.9 5.5-12.9 12.2-25.2 19.9-36.7q5.8-8.6 12.4-16.6v2.8h333v-2.8q6.6 8 12.4 16.6c7.7 11.5 14.4 23.8 19.9 36.7 10.9 25.8 16.9 54.2 16.9 83.9z"/>
				<path fill="#040404" d="m3471.2 483.8c0 118.2-95.8 214-213.9 214-118.2 0-213.9-95.8-213.9-214 0-29.5 5.9-57.6 16.8-83.2 5.4-12.8 12-25 19.7-36.4q5.8-8.5 12.3-16.4v1.6h330.2v-1.6q6.5 7.9 12.3 16.4c7.7 11.4 14.3 23.6 19.7 36.4 10.8 25.6 16.8 53.7 16.8 83.2z"/>
				<path fill="#040404" d="m3469.4 483.8c0 117.2-94.9 212.2-212.1 212.2-117.2 0-212.2-95-212.2-212.2 0-58.5 23.8-111.6 62.2-150v15.6h300v-15.6c38.4 38.4 62.1 91.5 62.1 150z"/>
				<path fill="#050505" d="m3467.7 483.8c0 116.2-94.2 210.4-210.4 210.4-116.2 0-210.4-94.2-210.4-210.4 0-58 23.6-110.6 61.6-148.7v14.3h297.5v-14.3c38.1 38.1 61.7 90.7 61.7 148.7z"/>
				<path fill="#060606" d="m3465.9 483.8c0 115.2-93.4 208.6-208.6 208.6-115.2 0-208.6-93.4-208.6-208.6 0-57.6 23.4-109.7 61.1-147.4v13h295v-13c37.7 37.7 61.1 89.8 61.1 147.4z"/>
				<path fill="#060606" d="m3464.1 483.8c0 114.3-92.6 206.9-206.8 206.9-114.2 0-206.8-92.6-206.8-206.9 0-57.1 23.1-108.8 60.6-146.2v11.8h292.4v-11.8c37.5 37.4 60.6 89.1 60.6 146.2z"/>
				<path fill="#070707" d="m3462.3 483.8c0 113.3-91.8 205.1-205 205.1-113.2 0-205-91.8-205-205.1 0-56.6 22.9-107.8 60-144.9v10.5h290v-10.5c37.1 37.1 60 88.3 60 144.9z"/>
				<path fill="#090909" d="m3460.5 483.8c0 112.3-91 203.3-203.2 203.3-112.3 0-203.2-91-203.2-203.3 0-56.1 22.7-106.9 59.5-143.7v9.3h287.4v-9.3c36.8 36.8 59.5 87.6 59.5 143.7z"/>
				<path fill="#090909" d="m3458.8 483.8c0 111.3-90.2 201.5-201.5 201.5-111.3 0-201.5-90.2-201.5-201.5 0-55.6 22.6-105.9 59-142.4v8h284.9v-8c36.5 36.5 59.1 86.8 59.1 142.4z"/>
				<path fill="#090909" d="m3457 483.8c0 110.3-89.4 199.7-199.7 199.7-110.3 0-199.7-89.4-199.7-199.7 0-55.1 22.4-105 58.5-141.1v6.7h282.4v-6.7c36.1 36.1 58.5 86 58.5 141.1z"/>
				<path fill="#0a0a0a" d="m3455.2 483.8c0 109.3-88.6 197.9-197.9 197.9-109.3 0-197.9-88.6-197.9-197.9 0-54.6 22.2-104.1 58-139.9v5.5h279.8v-5.5c35.8 35.8 58 85.3 58 139.9z"/>
				<path fill="#0a0a0a" d="m3453.4 483.8c0 108.4-87.8 196.2-196.1 196.2-108.3 0-196.1-87.8-196.1-196.2 0-54.1 21.9-103.1 57.4-138.6v4.2h277.4v-4.2c35.5 35.5 57.4 84.5 57.4 138.6z"/>
				<path fill="#0b0b0b" d="m3451.6 483.8c0 107.4-87 194.4-194.3 194.4-107.3 0-194.3-87-194.3-194.4 0-53.6 21.7-102.2 56.9-137.4v3h274.8v-3c35.2 35.2 56.9 83.8 56.9 137.4z"/>
				<path fill="#0c0c0c" d="m3449.8 483.8c0 106.4-86.2 192.6-192.5 192.6-106.3 0-192.5-86.2-192.5-192.6 0-53.1 21.5-101.3 56.3-136.1v1.7h272.3v-1.7c34.9 34.8 56.4 83 56.4 136.1z"/>
				<path fill="#0d0d0d" d="m3448.1 483.8c0 105.4-85.5 190.8-190.8 190.8-105.4 0-190.8-85.4-190.8-190.8 0-52.6 21.4-100.3 55.9-134.8v0.4h269.8v-0.4c34.5 34.5 55.9 82.2 55.9 134.8z"/>
				<path fill="#0d0d0d" d="m3446.3 483.8c0 104.4-84.6 189-189 189-104.4 0-189-84.6-189-189 0-52.1 21.2-99.4 55.4-133.6q6.4-6.4 13.4-12.2v11.4h240.4v-11.4q7 5.8 13.4 12.2c34.2 34.2 55.4 81.5 55.4 133.6z"/>
				<path fill="#0e0e0e" d="m3444.5 483.8c0 103.4-83.8 187.2-187.2 187.2-103.4 0-187.2-83.8-187.2-187.2 0-51.6 21-98.4 54.8-132.3q6.4-6.4 13.3-12.1v10h238.2v-10q6.9 5.7 13.3 12.1c33.8 33.9 54.8 80.7 54.8 132.3z"/>
				<path fill="#0e0e0e" d="m3442.7 483.8c0 102.4-83 185.5-185.4 185.5-102.4 0-185.4-83.1-185.4-185.5 0-51.2 20.7-97.5 54.3-131.1q6.3-6.3 13.2-11.9v8.6h235.8v-8.6q6.9 5.6 13.2 11.9c33.6 33.6 54.3 79.9 54.3 131.1z"/>
				<path fill="#101010" d="m3440.9 483.8c0 101.5-82.2 183.7-183.6 183.7-101.4 0-183.6-82.2-183.6-183.7 0-50.7 20.5-96.6 53.7-129.8q6.3-6.2 13.1-11.9v7.3h233.6v-7.3q6.8 5.7 13 11.9c33.3 33.2 53.8 79.1 53.8 129.8z"/>
				<path fill="#111111" d="m3439.1 483.8c0 100.5-81.4 181.9-181.8 181.9-100.4 0-181.9-81.4-181.9-181.9 0-50.2 20.4-95.6 53.3-128.5q6.2-6.2 12.9-11.8v5.9h231.4v-5.9q6.7 5.6 12.9 11.8c32.9 32.9 53.2 78.3 53.2 128.5z"/>
				<path fill="#121212" d="m3437.4 483.8c0 99.5-80.7 180.1-180.1 180.1-99.5 0-180.1-80.6-180.1-180.1 0-49.7 20.2-94.7 52.8-127.3 8.1-8.1 17-15.5 26.6-22v14.9h201.4v-14.9c9.5 6.5 18.5 13.9 26.6 22 32.6 32.6 52.8 77.6 52.8 127.3z"/>
				<path fill="#121212" d="m3435.6 483.8c0 98.5-79.8 178.3-178.3 178.3-98.5 0-178.3-79.8-178.3-178.3 0-49.2 20-93.8 52.2-126 8.1-8.1 16.9-15.4 26.4-21.8v13.4h199.4v-13.4c9.5 6.4 18.3 13.7 26.4 21.8 32.2 32.2 52.2 76.8 52.2 126z"/>
				<path fill="#131313" d="m3433.8 483.8c0 97.5-79 176.5-176.5 176.5-97.5 0-176.5-79-176.5-176.5 0-48.7 19.8-92.8 51.7-124.8 8-7.9 16.7-15.2 26.1-21.5v11.9h197.4v-11.9c9.4 6.3 18.1 13.6 26.1 21.5 31.9 32 51.7 76.1 51.7 124.8z"/>
				<path fill="#141414" d="m3432 483.8c0 96.5-78.2 174.8-174.7 174.8-96.5 0-174.7-78.3-174.7-174.8 0-48.2 19.5-91.9 51.2-123.5 7.9-7.9 16.5-15.1 25.8-21.3v10.4h195.4v-10.4c9.3 6.2 17.9 13.4 25.8 21.3 31.7 31.6 51.2 75.3 51.2 123.5z"/>
				<path fill="#161616" d="m3430.2 483.8c0 95.6-77.4 173-172.9 173-95.5 0-172.9-77.4-172.9-173 0-47.7 19.3-90.9 50.6-122.2 7.8-7.9 16.4-14.9 25.6-21.2v9h193.4v-9c9.2 6.3 17.8 13.3 25.6 21.2 31.3 31.3 50.6 74.5 50.6 122.2z"/>
				<path fill="#161616" d="m3428.4 483.8c0 94.6-76.6 171.2-171.1 171.2-94.5 0-171.2-76.6-171.2-171.2 0-47.2 19.2-90 50.2-121 7.7-7.7 16.2-14.7 25.3-20.9v7.5h191.4v-7.5c9.1 6.2 17.6 13.2 25.3 20.9 31 31 50.1 73.8 50.1 121z"/>
				<path fill="#171717" d="m3426.7 483.8c0 93.6-75.9 169.4-169.4 169.4-93.5 0-169.4-75.8-169.4-169.4 0-46.7 19-89.1 49.6-119.7 7.7-7.7 16.1-14.6 25.1-20.7v6h189.4v-6c9 6.1 17.4 13 25.1 20.7 30.6 30.6 49.6 73 49.6 119.7z"/>
				<path fill="#181818" d="m3424.9 483.8c0 92.6-75.1 167.6-167.6 167.6-92.6 0-167.6-75-167.6-167.6 0-46.2 18.8-88.1 49.1-118.5 7.6-7.5 15.9-14.4 24.8-20.4v4.5h187.4v-4.5c8.9 6 17.2 12.9 24.8 20.4 30.3 30.4 49.1 72.3 49.1 118.5z"/>
				<path fill="#181818" d="m3423.1 483.8c0 91.6-74.2 165.8-165.8 165.8-91.6 0-165.8-74.2-165.8-165.8 0-45.7 18.6-87.2 48.6-117.2 7.5-7.5 15.7-14.3 24.5-20.2v3h185.4v-3c8.8 5.9 17 12.7 24.5 20.2 30 30 48.6 71.5 48.6 117.2z"/>
				<path fill="#191919" d="m3421.3 483.8c0 90.6-73.4 164.1-164 164.1-90.6 0-164-73.5-164-164.1 0-45.2 18.3-86.3 48-115.9 7.4-7.5 15.6-14.2 24.3-20.1v1.6h183.4v-1.6c8.7 5.9 16.9 12.6 24.3 20.1 29.7 29.6 48 70.7 48 115.9z"/>
				<path fill="#1a1a1a" d="m3419.5 483.8c0 89.6-72.6 162.3-162.2 162.3-89.6 0-162.2-72.7-162.2-162.3 0-44.8 18.1-85.3 47.5-114.7 14.7-14.7 32.1-26.5 51.5-34.7v15h126.3v-15c19.5 8.2 36.9 20 51.6 34.7 29.4 29.4 47.5 69.9 47.5 114.7z"/>
				<path fill="#1b1b1b" d="m3417.7 483.8c0 88.7-71.8 160.5-160.4 160.5-88.6 0-160.5-71.8-160.5-160.5 0-44.3 18-84.4 47-113.4 14.6-14.5 31.8-26.3 51-34.4v13.4h124.9v-13.4c19.2 8.1 36.5 19.9 51.1 34.4 29 29 46.9 69.1 46.9 113.4z"/>
				<path fill="#1c1c1c" d="m3416 483.8c0 87.7-71.1 158.7-158.7 158.7-87.6 0-158.7-71-158.7-158.7 0-43.8 17.8-83.4 46.5-112.2 14.4-14.3 31.4-25.9 50.4-34v11.8h123.6v-11.8c18.9 8.1 36 19.7 50.4 34 28.7 28.8 46.5 68.4 46.5 112.2z"/>
				<path fill="#1c1c1c" d="m3414.2 483.8c0 86.7-70.3 156.9-156.9 156.9-86.7 0-156.9-70.2-156.9-156.9 0-43.3 17.6-82.5 46-110.9 14.2-14.2 31.1-25.7 49.8-33.6v10.1h122.2v-10.1c18.7 7.9 35.6 19.4 49.8 33.6 28.4 28.4 46 67.6 46 110.9z"/>
				<path fill="#1e1e1e" d="m3412.4 483.8c0 85.7-69.4 155.2-155.1 155.2-85.7 0-155.1-69.5-155.1-155.2 0-42.8 17.4-81.6 45.4-109.6 14.1-14.1 30.8-25.4 49.3-33.3v8.5h120.8v-8.5c18.5 7.9 35.2 19.2 49.3 33.3 28 28 45.4 66.8 45.4 109.6z"/>
				<path fill="#1f1f1f" d="m3410.6 483.8c0 84.7-68.6 153.4-153.3 153.4-84.7 0-153.3-68.7-153.3-153.4 0-42.3 17.1-80.6 44.9-108.4 13.9-13.8 30.4-25.1 48.7-32.8v6.8h119.4v-6.8c18.3 7.7 34.8 19 48.7 32.8 27.8 27.8 44.9 66.1 44.9 108.4z"/>
				<path fill="#202020" d="m3408.8 483.8c0 83.7-67.8 151.6-151.5 151.6-83.7 0-151.5-67.9-151.5-151.6 0-41.8 16.9-79.7 44.3-107.1 13.8-13.7 30.1-24.8 48.2-32.5v5.2h118v-5.2c18.1 7.7 34.4 18.8 48.1 32.5 27.5 27.4 44.4 65.3 44.4 107.1z"/>
				<path fill="#212121" d="m3407 483.8c0 82.8-67 149.8-149.7 149.8-82.7 0-149.8-67-149.8-149.8 0-82.7 67.1-149.7 149.8-149.7 82.7 0 149.7 67 149.7 149.7z"/>
				<path fill="#222222" d="m3405.3 483.8c0 81.8-66.3 148-148 148-81.7 0-148-66.2-148-148 0-81.7 66.3-147.9 148-147.9 81.7 0 148 66.2 148 147.9z"/>
				<path fill="#232323" d="m3403.5 483.8c0 80.8-65.5 146.2-146.2 146.2-80.7 0-146.2-65.4-146.2-146.2 0-80.7 65.5-146.1 146.2-146.1 80.7 0 146.2 65.4 146.2 146.1z"/>
				<path fill="#242424" d="m3401.7 483.8c0 79.8-64.7 144.5-144.4 144.5-79.8 0-144.4-64.7-144.4-144.5 0-79.7 64.6-144.4 144.4-144.4 79.7 0 144.4 64.7 144.4 144.4z"/>
				<path fill="#262626" d="m3399.9 483.8c0 78.8-63.8 142.7-142.6 142.7-78.8 0-142.6-63.9-142.6-142.7 0-78.7 63.8-142.6 142.6-142.6 78.8 0 142.6 63.9 142.6 142.6z"/>
				<path fill="#262626" d="m3398.1 483.8c0 77.8-63 140.9-140.8 140.9-77.8 0-140.8-63.1-140.8-140.9 0-77.7 63-140.8 140.8-140.8 77.8 0 140.8 63.1 140.8 140.8z"/>
				<path fill="#272727" d="m3396.4 483.8c0 76.8-62.3 139.1-139.1 139.1-76.8 0-139.1-62.3-139.1-139.1 0-76.8 62.3-139 139.1-139 76.8 0 139.1 62.2 139.1 139z"/>
				<path fill="#282828" d="m3394.6 483.8c0 75.9-61.5 137.3-137.3 137.3-75.8 0-137.3-61.4-137.3-137.3 0-75.8 61.5-137.2 137.3-137.2 75.8 0 137.3 61.4 137.3 137.2z"/>
				<path fill="#292929" d="m3392.8 483.8c0 74.9-60.7 135.5-135.5 135.5-74.8 0-135.5-60.6-135.5-135.5 0-74.8 60.7-135.4 135.5-135.4 74.8 0 135.5 60.6 135.5 135.4z"/>
				<path fill="#2a2a2a" d="m3391 483.8c0 73.9-59.9 133.8-133.7 133.8-73.9 0-133.7-59.9-133.7-133.8 0-73.8 59.8-133.7 133.7-133.7 73.8 0 133.7 59.9 133.7 133.7z"/>
				<path fill="#2b2b2b" d="m3389.2 483.8c0 72.9-59 132-131.9 132-72.9 0-131.9-59.1-131.9-132 0-72.8 59-131.9 131.9-131.9 72.9 0 131.9 59.1 131.9 131.9z"/>
				<path fill="#2c2c2c" d="m3387.4 483.8c0 71.9-58.2 130.2-130.1 130.2-71.9 0-130.2-58.3-130.2-130.2 0-71.8 58.3-130.1 130.2-130.1 71.9 0 130.1 58.3 130.1 130.1z"/>
				<path fill="#2d2d2d" d="m3385.7 483.8c0 70.9-57.5 128.4-128.4 128.4-70.9 0-128.4-57.5-128.4-128.4 0-70.8 57.5-128.3 128.4-128.3 70.9 0 128.4 57.5 128.4 128.3z"/>
				<path fill="#2e2e2e" d="m3383.9 483.8c0 70-56.7 126.6-126.6 126.6-69.9 0-126.6-56.6-126.6-126.6 0-69.9 56.7-126.5 126.6-126.5 69.9 0 126.6 56.6 126.6 126.5z"/>
				<path fill="#303030" d="m3382.1 483.8c0 69-55.9 124.8-124.8 124.8-68.9 0-124.8-55.8-124.8-124.8 0-68.9 55.9-124.8 124.8-124.8 68.9 0 124.8 55.9 124.8 124.8z"/>
				<path fill="#303030" d="m3380.3 483.8c0 68-55.1 123.1-123 123.1-67.9 0-123-55.1-123-123.1 0-67.9 55.1-123 123-123 67.9 0 123 55.1 123 123z"/>
				<path fill="#313131" d="m3378.5 483.8c0 67-54.3 121.3-121.2 121.3-67 0-121.2-54.3-121.2-121.3 0-66.9 54.2-121.2 121.2-121.2 66.9 0 121.2 54.3 121.2 121.2z"/>
				<path fill="#323232" d="m3376.7 483.8c0 66-53.4 119.5-119.4 119.5-66 0-119.5-53.5-119.5-119.5 0-65.9 53.5-119.4 119.5-119.4 66 0 119.4 53.5 119.4 119.4z"/>
				<path fill="#333333" d="m3375 483.8c0 65-52.7 117.7-117.7 117.7-65 0-117.7-52.7-117.7-117.7 0-64.9 52.7-117.6 117.7-117.6 65 0 117.7 52.7 117.7 117.6z"/>
				<path fill="#343434" d="m3373.2 483.8c0 64-51.9 115.9-115.9 115.9-64 0-115.9-51.9-115.9-115.9 0-64 51.9-115.8 115.9-115.8 64 0 115.9 51.8 115.9 115.8z"/>
				<path fill="#353535" d="m3371.4 483.8c0 63.1-51.1 114.1-114.1 114.1-63 0-114.1-51-114.1-114.1 0-63 51.1-114.1 114.1-114.1 63 0 114.1 51.1 114.1 114.1z"/>
				<path fill="#363636" d="m3369.6 483.8c0 62.1-50.3 112.4-112.3 112.4-62 0-112.3-50.3-112.3-112.4 0-62 50.3-112.3 112.3-112.3 62 0 112.3 50.3 112.3 112.3z"/>
				<path fill="#373737" d="m3367.8 483.8c0 61.1-49.5 110.6-110.5 110.6-61.1 0-110.5-49.5-110.5-110.6 0-61 49.4-110.5 110.5-110.5 61 0 110.5 49.5 110.5 110.5z"/>
				<path fill="#383838" d="m3366 483.8c0 60.1-48.6 108.8-108.7 108.8-60.1 0-108.8-48.7-108.8-108.8 0-60 48.7-108.7 108.8-108.7 60.1 0 108.7 48.7 108.7 108.7z"/>
				<path fill="#393939" d="m3364.3 483.8c0 59.1-47.9 107-107 107-59.1 0-107-47.9-107-107 0-59 47.9-106.9 107-106.9 59.1 0 107 47.9 107 106.9z"/>
				<path fill="#3b3b3b" d="m3362.5 483.8c0 58.1-47.1 105.2-105.2 105.2-58.1 0-105.2-47.1-105.2-105.2 0-58 47.1-105.1 105.2-105.1 58.1 0 105.2 47.1 105.2 105.1z"/>
				<path fill="#3c3c3c" d="m3360.7 483.8c0 57.2-46.3 103.4-103.4 103.4-57.1 0-103.4-46.2-103.4-103.4 0-57.1 46.3-103.4 103.4-103.4 57.1 0 103.4 46.3 103.4 103.4z"/>
				<path fill="#3d3d3d" d="m3358.9 483.8c0 56.2-45.5 101.7-101.6 101.7-56.1 0-101.6-45.5-101.6-101.7 0-56.1 45.5-101.6 101.6-101.6 56.1 0 101.6 45.5 101.6 101.6z"/>
				<path fill="#3e3e3e" d="m3357.1 483.8c0 55.2-44.7 99.9-99.8 99.9-55.1 0-99.8-44.7-99.8-99.9 0-55.1 44.7-99.8 99.8-99.8 55.1 0 99.8 44.7 99.8 99.8z"/>
				<path fill="#3f3f3f" d="m3355.3 483.8c0 54.2-43.9 98.1-98 98.1-54.2 0-98.1-43.9-98.1-98.1 0-54.1 43.9-98 98.1-98 54.1 0 98 43.9 98 98z"/>
				<path fill="#404040" d="m3353.6 483.8c0 53.2-43.1 96.3-96.3 96.3-53.2 0-96.3-43.1-96.3-96.3 0-53.1 43.1-96.2 96.3-96.2 53.2 0 96.3 43.1 96.3 96.2z"/>
				<path fill="#414141" d="m3351.8 483.8c0 52.2-42.3 94.5-94.5 94.5-52.2 0-94.5-42.3-94.5-94.5 0-52.1 42.3-94.4 94.5-94.4 52.2 0 94.5 42.3 94.5 94.4z"/>
				<path fill="#424242" d="m3350 483.8c0 51.2-41.5 92.8-92.7 92.8-51.2 0-92.7-41.6-92.7-92.8 0-51.2 41.5-92.7 92.7-92.7 51.2 0 92.7 41.5 92.7 92.7z"/>
				<path fill="#434343" d="m3348.2 483.8c0 50.3-40.7 91-90.9 91-50.2 0-90.9-40.7-90.9-91 0-50.2 40.7-90.9 90.9-90.9 50.2 0 90.9 40.7 90.9 90.9z"/>
				<path fill="#444444" d="m3346.4 483.8c0 49.3-39.9 89.2-89.1 89.2-49.2 0-89.1-39.9-89.1-89.2 0-49.2 39.9-89.1 89.1-89.1 49.2 0 89.1 39.9 89.1 89.1z"/>
				<path fill="#464646" d="m3344.7 483.8c0 48.3-39.2 87.4-87.4 87.4-48.3 0-87.4-39.1-87.4-87.4 0-48.2 39.1-87.3 87.4-87.3 48.2 0 87.4 39.1 87.4 87.3z"/>
				<path fill="#474747" d="m3342.9 483.8c0 47.3-38.3 85.6-85.6 85.6-47.3 0-85.6-38.3-85.6-85.6 0-47.2 38.3-85.5 85.6-85.5 47.3 0 85.6 38.3 85.6 85.5z"/>
				<path fill="#474747" d="m3341.1 483.8c0 46.3-37.5 83.8-83.8 83.8-46.3 0-83.8-37.5-83.8-83.8 0-46.2 37.5-83.7 83.8-83.7 46.3 0 83.8 37.5 83.8 83.7z"/>
				<path fill="#494949" d="m3339.3 483.8c0 45.3-36.7 82.1-82 82.1-45.3 0-82-36.8-82-82.1 0-45.2 36.7-82 82-82 45.3 0 82 36.8 82 82z"/>
				<path fill="#4a4a4a" d="m3337.5 483.8c0 44.4-35.9 80.3-80.2 80.3-44.3 0-80.2-35.9-80.2-80.3 0-44.3 35.9-80.2 80.2-80.2 44.3 0 80.2 35.9 80.2 80.2z"/>
				<path fill="#4b4b4b" d="m3335.7 483.8c0 43.4-35.1 78.5-78.4 78.5-43.3 0-78.4-35.1-78.4-78.5 0-43.3 35.1-78.4 78.4-78.4 43.3 0 78.4 35.1 78.4 78.4z"/>
				<path fill="#4c4c4c" d="m3334 483.8c0 42.4-34.4 76.7-76.7 76.7-42.3 0-76.7-34.3-76.7-76.7 0-42.3 34.4-76.6 76.7-76.6 42.3 0 76.7 34.3 76.7 76.6z"/>
				<path fill="#4e4e4e" d="m3332.2 483.8c0 41.4-33.6 74.9-74.9 74.9-41.4 0-74.9-33.5-74.9-74.9 0-41.3 33.5-74.8 74.9-74.8 41.3 0 74.9 33.5 74.9 74.8z"/>
				<path fill="#4f4f4f" d="m3330.4 483.8c0 40.4-32.7 73.1-73.1 73.1-40.4 0-73.1-32.7-73.1-73.1 0-40.3 32.7-73 73.1-73 40.4 0 73.1 32.7 73.1 73z"/>
				<path fill="#505050" d="m3328.6 483.8c0 39.4-31.9 71.4-71.3 71.4-39.4 0-71.3-32-71.3-71.4 0-39.3 31.9-71.3 71.3-71.3 39.4 0 71.3 32 71.3 71.3z"/>
				<path fill="#515151" d="m3326.8 483.8c0 38.4-31.1 69.6-69.5 69.6-38.4 0-69.5-31.2-69.5-69.6 0-38.4 31.1-69.5 69.5-69.5 38.4 0 69.5 31.1 69.5 69.5z"/>
				<path fill="#525252" d="m3325 483.8c0 37.5-30.3 67.8-67.7 67.8-37.4 0-67.8-30.3-67.8-67.8 0-37.4 30.4-67.7 67.8-67.7 37.4 0 67.7 30.3 67.7 67.7z"/>
				<path fill="#535353" d="m3323.3 483.8c0 36.5-29.6 66-66 66-36.4 0-66-29.5-66-66 0-36.4 29.6-65.9 66-65.9 36.4 0 66 29.5 66 65.9z"/>
				<path fill="#555555" d="m3321.5 483.8c0 35.5-28.8 64.2-64.2 64.2-35.5 0-64.2-28.7-64.2-64.2 0-35.4 28.7-64.1 64.2-64.1 35.4 0 64.2 28.7 64.2 64.1z"/>
				<path fill="#565656" d="m3319.7 483.8c0 34.5-27.9 62.4-62.4 62.4-34.5 0-62.4-27.9-62.4-62.4 0-34.4 27.9-62.4 62.4-62.4 34.5 0 62.4 28 62.4 62.4z"/>
				<path fill="#575757" d="m3317.9 483.8c0 33.5-27.1 60.7-60.6 60.7-33.5 0-60.6-27.2-60.6-60.7 0-33.4 27.1-60.6 60.6-60.6 33.5 0 60.6 27.2 60.6 60.6z"/>
				<path fill="#595959" d="m3316.1 483.8c0 32.5-26.3 58.9-58.8 58.9-32.5 0-58.8-26.4-58.8-58.9 0-32.4 26.3-58.8 58.8-58.8 32.5 0 58.8 26.4 58.8 58.8z"/>
				<path fill="#595959" d="m3314.3 483.8c0 31.6-25.5 57.1-57 57.1-31.5 0-57.1-25.5-57.1-57.1 0-31.5 25.6-57 57.1-57 31.5 0 57 25.5 57 57z"/>
				<path fill="#5b5b5b" d="m3312.6 483.8c0 30.6-24.8 55.3-55.3 55.3-30.5 0-55.3-24.7-55.3-55.3 0-30.5 24.8-55.2 55.3-55.2 30.5 0 55.3 24.7 55.3 55.2z"/>
				<path fill="#5c5c5c" d="m3310.8 483.8c0 29.6-24 53.5-53.5 53.5-29.5 0-53.5-23.9-53.5-53.5 0-29.5 24-53.4 53.5-53.4 29.5 0 53.5 23.9 53.5 53.4z"/>
				<path fill="#5d5d5d" d="m3309 483.8c0 28.6-23.2 51.7-51.7 51.7-28.6 0-51.7-23.1-51.7-51.7 0-28.5 23.1-51.7 51.7-51.7 28.5 0 51.7 23.2 51.7 51.7z"/>
				<path fill="#5e5e5e" d="m3307.2 483.8c0 27.6-22.3 50-49.9 50-27.6 0-49.9-22.4-49.9-50 0-27.5 22.3-49.9 49.9-49.9 27.6 0 49.9 22.4 49.9 49.9z"/>
				<path fill="#5f5f5f" d="m3305.4 483.8c0 26.6-21.5 48.2-48.1 48.2-26.6 0-48.1-21.6-48.1-48.2 0-26.5 21.5-48.1 48.1-48.1 26.6 0 48.1 21.6 48.1 48.1z"/>
				<path fill="#616161" d="m3303.6 483.8c0 25.6-20.7 46.4-46.3 46.4-25.6 0-46.4-20.8-46.4-46.4 0-25.6 20.8-46.3 46.4-46.3 25.6 0 46.3 20.7 46.3 46.3z"/>
				<path fill="#626262" d="m3301.9 483.8c0 24.7-20 44.6-44.6 44.6-24.6 0-44.6-19.9-44.6-44.6 0-24.6 20-44.5 44.6-44.5 24.6 0 44.6 19.9 44.6 44.5z"/>
				<path fill="#636363" d="m3300.1 483.8c0 23.7-19.2 42.8-42.8 42.8-23.6 0-42.8-19.1-42.8-42.8 0-23.6 19.2-42.7 42.8-42.7 23.6 0 42.8 19.1 42.8 42.7z"/>
				<path fill="#646464" d="m3298.3 483.8c0 22.7-18.4 41.1-41 41.1-22.7 0-41-18.4-41-41.1 0-22.6 18.3-41 41-41 22.6 0 41 18.4 41 41z"/>
				<path fill="#666666" d="m3296.5 483.8c0 21.7-17.5 39.3-39.2 39.3-21.7 0-39.2-17.6-39.2-39.3 0-21.6 17.5-39.2 39.2-39.2 21.7 0 39.2 17.6 39.2 39.2z"/>
				<path fill="#676767" d="m3294.7 483.8c0 20.7-16.7 37.5-37.4 37.5-20.7 0-37.4-16.8-37.4-37.5 0-20.6 16.7-37.4 37.4-37.4 20.7 0 37.4 16.8 37.4 37.4z"/>
				<path fill="#686868" d="m3293 483.8c0 19.7-16 35.7-35.7 35.7-19.7 0-35.7-16-35.7-35.7 0-19.6 16-35.6 35.7-35.6 19.7 0 35.7 16 35.7 35.6z"/>
				<path fill="#696969" d="m3291.2 483.8c0 18.8-15.2 33.9-33.9 33.9-18.7 0-33.9-15.1-33.9-33.9 0-18.7 15.2-33.8 33.9-33.8 18.7 0 33.9 15.1 33.9 33.8z"/>
				<path fill="#6a6a6a" d="m3289.4 483.8c0 17.8-14.4 32.1-32.1 32.1-17.7 0-32.1-14.3-32.1-32.1 0-17.7 14.4-32 32.1-32 17.7 0 32.1 14.3 32.1 32z"/>
				<path fill="#6c6c6c" d="m3287.6 483.8c0 16.8-13.6 30.4-30.3 30.4-16.7 0-30.3-13.6-30.3-30.4 0-16.7 13.6-30.3 30.3-30.3 16.7 0 30.3 13.6 30.3 30.3z"/>
				<path fill="#6d6d6d" d="m3285.8 483.8c0 15.8-12.8 28.6-28.5 28.6-15.8 0-28.5-12.8-28.5-28.6 0-15.7 12.7-28.5 28.5-28.5 15.7 0 28.5 12.8 28.5 28.5z"/>
				<path fill="#6e6e6e" d="m3284 483.8c0 14.8-11.9 26.8-26.7 26.8-14.8 0-26.7-12-26.7-26.8 0-14.7 11.9-26.7 26.7-26.7 14.8 0 26.7 12 26.7 26.7z"/>
				<path fill="#707070" d="m3282.3 483.8c0 13.8-11.2 25-25 25-13.8 0-25-11.2-25-25 0-13.7 11.2-24.9 25-24.9 13.8 0 25 11.2 25 24.9z"/>
				<path fill="#717171" d="m3280.5 483.8c0 12.8-10.4 23.2-23.2 23.2-12.8 0-23.2-10.4-23.2-23.2 0-12.8 10.4-23.1 23.2-23.1 12.8 0 23.2 10.3 23.2 23.1z"/>
				<path fill="#727272" d="m3278.7 483.8c0 11.9-9.6 21.4-21.4 21.4-11.8 0-21.4-9.5-21.4-21.4 0-11.8 9.6-21.3 21.4-21.3 11.8 0 21.4 9.5 21.4 21.3z"/>
				<path fill="#737373" d="m3276.9 483.8c0 10.9-8.8 19.7-19.6 19.7-10.8 0-19.6-8.8-19.6-19.7 0-10.8 8.8-19.6 19.6-19.6 10.8 0 19.6 8.8 19.6 19.6z"/>
				<path fill="#747474" d="m3275.1 483.8c0 9.9-8 17.9-17.8 17.9-9.9 0-17.8-8-17.8-17.9 0-9.8 7.9-17.8 17.8-17.8 9.8 0 17.8 8 17.8 17.8z"/>
				<path fill="#767676" d="m3273.3 483.8c0 8.9-7.1 16.1-16 16.1-8.9 0-16.1-7.2-16.1-16.1 0-8.8 7.2-16 16.1-16 8.9 0 16 7.2 16 16z"/>
				<path fill="#777777" d="m3271.6 483.8c0 7.9-6.4 14.3-14.3 14.3-7.9 0-14.3-6.4-14.3-14.3 0-7.8 6.4-14.2 14.3-14.2 7.9 0 14.3 6.4 14.3 14.2z"/>
				<path fill="#787878" d="m3269.8 483.8c0 6.9-5.6 12.5-12.5 12.5-6.9 0-12.5-5.6-12.5-12.5 0-6.8 5.6-12.4 12.5-12.4 6.9 0 12.5 5.6 12.5 12.4z"/>
				<path fill="#7a7a7a" d="m3268 483.8c0 6-4.8 10.7-10.7 10.7-5.9 0-10.7-4.7-10.7-10.7 0-5.9 4.8-10.7 10.7-10.7 5.9 0 10.7 4.8 10.7 10.7z"/>
				<path fill="#7b7b7b" d="m3266.2 483.8c0 5-4 9-8.9 9-4.9 0-8.9-4-8.9-9 0-4.9 4-8.9 8.9-8.9 4.9 0 8.9 4 8.9 8.9z"/>
				<path fill="#7c7c7c" d="m3264.4 483.8c0 4-3.2 7.2-7.1 7.2-3.9 0-7.1-3.2-7.1-7.2 0-3.9 3.2-7.1 7.1-7.1 3.9 0 7.1 3.2 7.1 7.1z"/>
				<path fill="#7d7d7d" d="m3262.6 483.8c0 3-2.4 5.4-5.3 5.4-3 0-5.4-2.4-5.4-5.4 0-2.9 2.4-5.3 5.4-5.3 2.9 0 5.3 2.4 5.3 5.3z"/>
				<path fill="#7f7f7f" d="m3260.9 483.8c0 2-1.6 3.6-3.6 3.6-2 0-3.6-1.6-3.6-3.6 0-1.9 1.6-3.5 3.6-3.5 2 0 3.6 1.6 3.6 3.5z"/>
				<path fill="#808080" d="m3259.1 483.8c0 1-0.8 1.8-1.8 1.8-1 0-1.8-0.8-1.8-1.8 0-0.9 0.8-1.7 1.8-1.7 1 0 1.8 0.8 1.8 1.7z"/>
			</g>
			<path fill-rule="evenodd" fill="#dbdbdb" d="m3505.7 769.2h-59.8l-11.8-17.1c-12.9 5.2-27.1 9.5-42.1 12.7-8.1 1.8-16.3 3.2-24.3 4.4h-0.7-220.2c-7.9-1.2-16.1-2.6-24.2-4.4-24-5.2-45.1-12.6-62.6-22-27-14.5-44.6-33.2-52.3-55.7-2.9-8.7-4.4-17.8-4.4-27.3v-202.9c0-9.1 1.3-17.8 4-26 4.9-15.4 14.6-29.2 28.7-41.1 45.2-37.8 121-43.5 124.2-43.8h0.4 320v92.2h-275.5c-7.7 0.2-15.1 2.6-21.4 6.9-10.7 7.2-17.2 19.2-17.4 32.1q0 0.4-0.1 0.7v3.7 158.3c0.1 18.2 12.3 33.9 29.9 38.5l61.3 0.6 69.5-0.7c17.5-4.6 29.8-20.3 29.8-38.5l0.1-22.3h-21.4v-68h175.9v219.6zm-53.9-11.2h48.3v-197.4h-153.6v45.7h21.5l-0.2 33.7c-0.1 23.4-16.1 43.7-38.9 49.3l-0.6 0.1-71 0.8-62.6-0.7-0.6-0.1c-22.9-5.6-38.9-25.8-39.1-49.3v-0.3-161.7q0-0.5 0.1-1c0.3-16.6 8.7-32 22.2-41.2 8.1-5.5 17.6-8.6 27.5-8.9h0.3q0.5 0 1 0h263.3v-69.8h-308.6c-4.1 0.3-76.2 6.6-117.6 41.2-12.5 10.4-21 22.5-25.3 35.9-2.3 7.1-3.4 14.7-3.4 22.6v202.9c0 8.2 1.2 16.2 3.8 23.7 6.7 19.7 22.5 36.3 46.9 49.4 16.7 8.9 36.8 16 59.8 21 7.7 1.7 15.4 3.1 23 4.1h218.6c7.5-1 15.3-2.4 23-4.1 16-3.5 30.9-8.1 44.4-13.8l4.2-1.8z"/>
			<g clip-path="url(#cp3)">
				<path fill="#000000" d="m4143.5 351.6h496.8v412h-496.8z"/>
				<path fill="#000000" d="m4620.1 483.8c0 126.1-102.2 228.2-228.2 228.2-126 0-228.2-102.1-228.2-228.2 0-31.5 6.4-61.5 17.9-88.8 5.8-13.6 12.9-26.6 21.1-38.7q6.1-9.2 13.1-17.6v10.7h352.2v-10.7q7 8.4 13.1 17.6c8.2 12.1 15.3 25.1 21.1 38.7 11.5 27.3 17.9 57.3 17.9 88.8z"/>
				<path fill="#000000" d="m4618.3 483.8c0 125.1-101.4 226.5-226.4 226.5-125 0-226.4-101.4-226.4-226.5 0-31.2 6.3-61 17.8-88.1 5.7-13.5 12.7-26.4 20.9-38.4q6.1-9.1 13-17.5v9.6h349.4v-9.6q6.9 8.4 13 17.5c8.2 12 15.2 24.9 20.9 38.4 11.5 27.1 17.8 56.9 17.8 88.1z"/>
				<path fill="#010101" d="m4616.5 483.8c0 124.1-100.5 224.7-224.6 224.7-124.1 0-224.6-100.6-224.6-224.7 0-31 6.3-60.5 17.6-87.4 5.7-13.4 12.7-26.2 20.7-38.1q6.1-9 13-17.3v8.4h346.6v-8.4q6.9 8.3 13 17.3c8 11.9 15 24.7 20.7 38.1 11.3 26.9 17.6 56.4 17.6 87.4z"/>
				<path fill="#010101" d="m4614.8 483.8c0 123.1-99.8 222.9-222.9 222.9-123.1 0-222.9-99.8-222.9-222.9 0-30.7 6.3-60 17.6-86.7 5.6-13.3 12.5-26 20.5-37.9q6-8.8 12.8-17.1v7.3h344v-7.3q6.8 8.3 12.8 17.1c8 11.9 14.9 24.6 20.5 37.9 11.3 26.7 17.6 56 17.6 86.7z"/>
				<path fill="#020202" d="m4613 483.8c0 122.1-99 221.1-221.1 221.1-122.1 0-221.1-99-221.1-221.1 0-30.5 6.2-59.6 17.4-86 5.6-13.2 12.4-25.8 20.4-37.6q6-8.8 12.7-17v6.2h341.2v-6.2q6.7 8.2 12.7 17c8 11.8 14.8 24.4 20.4 37.6 11.2 26.4 17.4 55.5 17.4 86z"/>
				<path fill="#020202" d="m4611.2 483.8c0 121.2-98.2 219.3-219.3 219.3-121.1 0-219.3-98.1-219.3-219.3 0-30.2 6.2-59.1 17.2-85.3 5.6-13.1 12.4-25.6 20.3-37.3q5.9-8.7 12.6-16.8v5h338.4v-5q6.7 8.1 12.6 16.8c7.9 11.7 14.7 24.2 20.3 37.3 11 26.2 17.2 55.1 17.2 85.3z"/>
				<path fill="#030303" d="m4609.4 483.8c0 120.2-97.4 217.5-217.5 217.5-120.1 0-217.5-97.3-217.5-217.5 0-30 6.1-58.6 17.1-84.6 5.5-13 12.2-25.4 20-37q5.9-8.6 12.6-16.7v3.9h335.6v-3.9q6.7 8.1 12.6 16.7c7.8 11.6 14.5 24 20 37 11 26 17.1 54.6 17.1 84.6z"/>
				<path fill="#030303" d="m4607.6 483.8c0 119.2-96.6 215.8-215.7 215.8-119.1 0-215.7-96.6-215.7-215.8 0-29.7 6-58.1 16.9-83.9 5.5-12.9 12.2-25.2 19.9-36.7q5.8-8.6 12.4-16.6v2.8h333v-2.8q6.6 8 12.4 16.6c7.7 11.5 14.4 23.8 19.9 36.7 10.9 25.8 16.9 54.2 16.9 83.9z"/>
				<path fill="#040404" d="m4605.8 483.8c0 118.2-95.7 214-213.9 214-118.2 0-213.9-95.8-213.9-214 0-29.5 5.9-57.6 16.8-83.2 5.4-12.8 12-25 19.7-36.4q5.8-8.5 12.3-16.4v1.6h330.2v-1.6q6.5 7.9 12.3 16.4c7.7 11.4 14.3 23.6 19.7 36.4 10.9 25.6 16.8 53.7 16.8 83.2z"/>
				<path fill="#040404" d="m4604.1 483.8c0 117.2-95 212.2-212.2 212.2-117.2 0-212.2-95-212.2-212.2 0-58.5 23.8-111.6 62.2-150v15.6h300v-15.6c38.4 38.4 62.2 91.5 62.2 150z"/>
				<path fill="#050505" d="m4602.3 483.8c0 116.2-94.2 210.4-210.4 210.4-116.2 0-210.4-94.2-210.4-210.4 0-58 23.6-110.6 61.6-148.7v14.3h297.6v-14.3c38 38.1 61.6 90.7 61.6 148.7z"/>
				<path fill="#060606" d="m4600.5 483.8c0 115.2-93.4 208.6-208.6 208.6-115.2 0-208.6-93.4-208.6-208.6 0-57.6 23.4-109.7 61.1-147.4v13h295v-13c37.7 37.7 61.1 89.8 61.1 147.4z"/>
				<path fill="#060606" d="m4598.7 483.8c0 114.3-92.6 206.9-206.8 206.9-114.2 0-206.8-92.6-206.8-206.9 0-57.1 23.1-108.8 60.6-146.2v11.8h292.4v-11.8c37.5 37.4 60.6 89.1 60.6 146.2z"/>
				<path fill="#070707" d="m4596.9 483.8c0 113.3-91.8 205.1-205 205.1-113.2 0-205-91.8-205-205.1 0-56.6 22.9-107.8 60-144.9v10.5h290v-10.5c37.1 37.1 60 88.3 60 144.9z"/>
				<path fill="#090909" d="m4595.1 483.8c0 112.3-91 203.3-203.2 203.3-112.2 0-203.2-91-203.2-203.3 0-56.1 22.7-106.9 59.5-143.7v9.3h287.4v-9.3c36.8 36.8 59.5 87.6 59.5 143.7z"/>
				<path fill="#090909" d="m4593.4 483.8c0 111.3-90.2 201.5-201.5 201.5-111.3 0-201.5-90.2-201.5-201.5 0-55.6 22.6-105.9 59-142.4v8h285v-8c36.4 36.5 59 86.8 59 142.4z"/>
				<path fill="#090909" d="m4591.6 483.8c0 110.3-89.4 199.7-199.7 199.7-110.3 0-199.7-89.4-199.7-199.7 0-55.1 22.4-105 58.5-141.1v6.7h282.4v-6.7c36.1 36.1 58.5 86 58.5 141.1z"/>
				<path fill="#0a0a0a" d="m4589.8 483.8c0 109.3-88.6 197.9-197.9 197.9-109.3 0-197.9-88.6-197.9-197.9 0-54.6 22.2-104.1 58-139.9v5.5h279.8v-5.5c35.8 35.8 58 85.3 58 139.9z"/>
				<path fill="#0a0a0a" d="m4588 483.8c0 108.4-87.8 196.2-196.1 196.2-108.3 0-196.1-87.8-196.1-196.2 0-54.1 21.9-103.1 57.4-138.6v4.2h277.4v-4.2c35.5 35.5 57.4 84.5 57.4 138.6z"/>
				<path fill="#0b0b0b" d="m4586.2 483.8c0 107.4-87 194.4-194.3 194.4-107.3 0-194.3-87-194.3-194.4 0-53.6 21.7-102.2 56.9-137.4v3h274.8v-3c35.2 35.2 56.9 83.8 56.9 137.4z"/>
				<path fill="#0c0c0c" d="m4584.4 483.8c0 106.4-86.2 192.6-192.5 192.6-106.3 0-192.5-86.2-192.5-192.6 0-53.1 21.5-101.3 56.4-136.1v1.7h272.2v-1.7c34.9 34.8 56.4 83 56.4 136.1z"/>
				<path fill="#0d0d0d" d="m4582.7 483.8c0 105.4-85.4 190.8-190.8 190.8-105.4 0-190.8-85.4-190.8-190.8 0-52.6 21.4-100.3 55.9-134.8v0.4h269.8v-0.4c34.5 34.5 55.9 82.2 55.9 134.8z"/>
				<path fill="#0d0d0d" d="m4580.9 483.8c0 104.4-84.6 189-189 189-104.4 0-189-84.6-189-189 0-52.1 21.2-99.4 55.4-133.6q6.4-6.4 13.4-12.2v11.4h240.4v-11.4q7 5.8 13.4 12.2c34.2 34.2 55.4 81.5 55.4 133.6z"/>
				<path fill="#0e0e0e" d="m4579.1 483.8c0 103.4-83.8 187.2-187.2 187.2-103.4 0-187.2-83.8-187.2-187.2 0-51.6 21-98.4 54.8-132.3q6.4-6.4 13.3-12.1v10h238.2v-10q6.9 5.7 13.3 12.1c33.8 33.9 54.8 80.7 54.8 132.3z"/>
				<path fill="#0e0e0e" d="m4577.3 483.8c0 102.4-83 185.5-185.4 185.5-102.4 0-185.4-83.1-185.4-185.5 0-51.2 20.7-97.5 54.3-131.1q6.3-6.3 13.2-11.9v8.6h235.8v-8.6q6.9 5.6 13.2 11.9c33.6 33.6 54.3 79.9 54.3 131.1z"/>
				<path fill="#101010" d="m4575.5 483.8c0 101.5-82.2 183.7-183.6 183.7-101.4 0-183.6-82.2-183.6-183.7 0-50.7 20.5-96.6 53.8-129.8q6.2-6.2 13-11.9v7.3h233.6v-7.3q6.8 5.7 13 11.9c33.3 33.2 53.8 79.1 53.8 129.8z"/>
				<path fill="#111111" d="m4573.7 483.8c0 100.5-81.4 181.9-181.8 181.9-100.4 0-181.8-81.4-181.8-181.9 0-50.2 20.3-95.6 53.2-128.5q6.2-6.2 12.9-11.8v5.9h231.4v-5.9q6.7 5.6 12.9 11.8c32.9 32.9 53.2 78.3 53.2 128.5z"/>
				<path fill="#121212" d="m4572 483.8c0 99.5-80.7 180.1-180.1 180.1-99.4 0-180.1-80.6-180.1-180.1 0-49.7 20.2-94.7 52.8-127.3 8.1-8.1 17-15.5 26.6-22v14.9h201.4v-14.9c9.6 6.5 18.5 13.9 26.6 22 32.6 32.6 52.8 77.6 52.8 127.3z"/>
				<path fill="#121212" d="m4570.2 483.8c0 98.5-79.8 178.3-178.3 178.3-98.5 0-178.3-79.8-178.3-178.3 0-49.2 20-93.8 52.2-126 8.1-8.1 16.9-15.4 26.4-21.8v13.4h199.4v-13.4c9.5 6.4 18.3 13.7 26.4 21.8 32.2 32.2 52.2 76.8 52.2 126z"/>
				<path fill="#131313" d="m4568.4 483.8c0 97.5-79 176.5-176.5 176.5-97.5 0-176.5-79-176.5-176.5 0-48.7 19.8-92.8 51.7-124.8 8-7.9 16.7-15.2 26.1-21.5v11.9h197.4v-11.9c9.4 6.3 18.1 13.6 26.1 21.5 31.9 32 51.7 76.1 51.7 124.8z"/>
				<path fill="#141414" d="m4566.6 483.8c0 96.5-78.2 174.8-174.7 174.8-96.5 0-174.7-78.3-174.7-174.8 0-48.2 19.5-91.9 51.2-123.5 7.9-7.9 16.5-15.1 25.8-21.3v10.4h195.4v-10.4c9.3 6.2 17.9 13.4 25.8 21.3 31.7 31.6 51.2 75.3 51.2 123.5z"/>
				<path fill="#161616" d="m4564.8 483.8c0 95.6-77.4 173-172.9 173-95.5 0-172.9-77.4-172.9-173 0-47.7 19.3-90.9 50.6-122.2 7.8-7.9 16.4-14.9 25.6-21.2v9h193.4v-9c9.2 6.3 17.8 13.3 25.6 21.2 31.3 31.3 50.6 74.5 50.6 122.2z"/>
				<path fill="#161616" d="m4563.1 483.8c0 94.6-76.7 171.2-171.2 171.2-94.5 0-171.1-76.6-171.1-171.2 0-47.2 19.1-90 50.1-121 7.7-7.7 16.2-14.7 25.3-20.9v7.5h191.4v-7.5c9.1 6.2 17.6 13.2 25.3 20.9 31 31 50.2 73.8 50.2 121z"/>
				<path fill="#171717" d="m4561.3 483.8c0 93.6-75.9 169.4-169.4 169.4-93.5 0-169.4-75.8-169.4-169.4 0-46.7 19-89.1 49.6-119.7 7.7-7.7 16.1-14.6 25.1-20.7v6h189.4v-6c9 6.1 17.4 13 25.1 20.7 30.6 30.6 49.6 73 49.6 119.7z"/>
				<path fill="#181818" d="m4559.5 483.8c0 92.6-75 167.6-167.6 167.6-92.6 0-167.6-75-167.6-167.6 0-46.2 18.8-88.1 49.1-118.5 7.6-7.5 15.9-14.4 24.8-20.4v4.5h187.4v-4.5c8.9 6 17.2 12.9 24.8 20.4 30.3 30.4 49.1 72.3 49.1 118.5z"/>
				<path fill="#181818" d="m4557.7 483.8c0 91.6-74.2 165.8-165.8 165.8-91.6 0-165.8-74.2-165.8-165.8 0-45.7 18.6-87.2 48.6-117.2 7.5-7.5 15.7-14.3 24.5-20.2v3h185.4v-3c8.8 5.9 17 12.7 24.5 20.2 30 30 48.6 71.5 48.6 117.2z"/>
				<path fill="#191919" d="m4555.9 483.8c0 90.6-73.4 164.1-164 164.1-90.6 0-164-73.5-164-164.1 0-45.2 18.3-86.3 48-115.9 7.4-7.5 15.6-14.2 24.3-20.1v1.6h183.4v-1.6c8.7 5.9 16.9 12.6 24.3 20.1 29.7 29.6 48 70.7 48 115.9z"/>
				<path fill="#1a1a1a" d="m4554.1 483.8c0 89.6-72.6 162.3-162.2 162.3-89.6 0-162.2-72.7-162.2-162.3 0-44.8 18.1-85.3 47.5-114.7 14.7-14.7 32.1-26.5 51.6-34.7v15h126.2v-15c19.5 8.2 36.9 20 51.6 34.7 29.4 29.4 47.5 69.9 47.5 114.7z"/>
				<path fill="#1b1b1b" d="m4552.4 483.8c0 88.7-71.9 160.5-160.5 160.5-88.6 0-160.5-71.8-160.5-160.5 0-44.3 18-84.4 47-113.4 14.6-14.5 31.8-26.3 51-34.4v13.4h125v-13.4c19.2 8.1 36.4 19.9 51 34.4 29 29 47 69.1 47 113.4z"/>
				<path fill="#1c1c1c" d="m4550.6 483.8c0 87.7-71.1 158.7-158.7 158.7-87.6 0-158.7-71-158.7-158.7 0-43.8 17.8-83.4 46.5-112.2 14.4-14.3 31.5-25.9 50.4-34v11.8h123.6v-11.8c18.9 8.1 36 19.7 50.4 34 28.7 28.8 46.5 68.4 46.5 112.2z"/>
				<path fill="#1c1c1c" d="m4548.8 483.8c0 86.7-70.3 156.9-156.9 156.9-86.6 0-156.9-70.2-156.9-156.9 0-43.3 17.6-82.5 46-110.9 14.2-14.2 31.1-25.7 49.8-33.6v10.1h122.2v-10.1c18.7 7.9 35.6 19.4 49.8 33.6 28.4 28.4 46 67.6 46 110.9z"/>
				<path fill="#1e1e1e" d="m4547 483.8c0 85.7-69.4 155.2-155.1 155.2-85.7 0-155.1-69.5-155.1-155.2 0-42.8 17.4-81.6 45.4-109.6 14.1-14.1 30.8-25.4 49.3-33.3v8.5h120.8v-8.5c18.5 7.9 35.2 19.2 49.3 33.3 28 28 45.4 66.8 45.4 109.6z"/>
				<path fill="#1f1f1f" d="m4545.2 483.8c0 84.7-68.6 153.4-153.3 153.4-84.7 0-153.3-68.7-153.3-153.4 0-42.3 17.1-80.6 44.9-108.4 13.9-13.8 30.4-25.1 48.7-32.8v6.8h119.4v-6.8c18.3 7.7 34.8 19 48.7 32.8 27.8 27.8 44.9 66.1 44.9 108.4z"/>
				<path fill="#202020" d="m4543.4 483.8c0 83.7-67.8 151.6-151.5 151.6-83.7 0-151.5-67.9-151.5-151.6 0-41.8 16.9-79.7 44.3-107.1 13.8-13.7 30.1-24.8 48.2-32.5v5.2h118v-5.2c18.1 7.7 34.4 18.8 48.2 32.5 27.4 27.4 44.3 65.3 44.3 107.1z"/>
				<path fill="#212121" d="m4541.7 483.8c0 82.8-67.1 149.8-149.8 149.8-82.7 0-149.8-67-149.8-149.8 0-82.7 67.1-149.7 149.8-149.7 82.7 0 149.8 67 149.8 149.7z"/>
				<path fill="#222222" d="m4539.9 483.8c0 81.8-66.3 148-148 148-81.7 0-148-66.2-148-148 0-81.7 66.3-147.9 148-147.9 81.7 0 148 66.2 148 147.9z"/>
				<path fill="#232323" d="m4538.1 483.8c0 80.8-65.5 146.2-146.2 146.2-80.7 0-146.2-65.4-146.2-146.2 0-80.7 65.5-146.1 146.2-146.1 80.7 0 146.2 65.4 146.2 146.1z"/>
				<path fill="#242424" d="m4536.3 483.8c0 79.8-64.6 144.5-144.4 144.5-79.8 0-144.4-64.7-144.4-144.5 0-79.7 64.6-144.4 144.4-144.4 79.8 0 144.4 64.7 144.4 144.4z"/>
				<path fill="#262626" d="m4534.5 483.8c0 78.8-63.8 142.7-142.6 142.7-78.8 0-142.6-63.9-142.6-142.7 0-78.7 63.8-142.6 142.6-142.6 78.8 0 142.6 63.9 142.6 142.6z"/>
				<path fill="#262626" d="m4532.7 483.8c0 77.8-63 140.9-140.8 140.9-77.8 0-140.8-63.1-140.8-140.9 0-77.7 63-140.8 140.8-140.8 77.8 0 140.8 63.1 140.8 140.8z"/>
				<path fill="#272727" d="m4531 483.8c0 76.8-62.3 139.1-139.1 139.1-76.8 0-139.1-62.3-139.1-139.1 0-76.8 62.3-139 139.1-139 76.8 0 139.1 62.2 139.1 139z"/>
				<path fill="#282828" d="m4529.2 483.8c0 75.9-61.5 137.3-137.3 137.3-75.8 0-137.3-61.4-137.3-137.3 0-75.8 61.5-137.2 137.3-137.2 75.8 0 137.3 61.4 137.3 137.2z"/>
				<path fill="#292929" d="m4527.4 483.8c0 74.9-60.7 135.5-135.5 135.5-74.8 0-135.5-60.6-135.5-135.5 0-74.8 60.7-135.4 135.5-135.4 74.8 0 135.5 60.6 135.5 135.4z"/>
				<path fill="#2a2a2a" d="m4525.6 483.8c0 73.9-59.9 133.8-133.7 133.8-73.8 0-133.7-59.9-133.7-133.8 0-73.8 59.9-133.7 133.7-133.7 73.8 0 133.7 59.9 133.7 133.7z"/>
				<path fill="#2b2b2b" d="m4523.8 483.8c0 72.9-59 132-131.9 132-72.9 0-131.9-59.1-131.9-132 0-72.8 59-131.9 131.9-131.9 72.9 0 131.9 59.1 131.9 131.9z"/>
				<path fill="#2c2c2c" d="m4522 483.8c0 71.9-58.2 130.2-130.1 130.2-71.9 0-130.1-58.3-130.1-130.2 0-71.8 58.2-130.1 130.1-130.1 71.9 0 130.1 58.3 130.1 130.1z"/>
				<path fill="#2d2d2d" d="m4520.3 483.8c0 70.9-57.5 128.4-128.4 128.4-70.9 0-128.4-57.5-128.4-128.4 0-70.8 57.5-128.3 128.4-128.3 70.9 0 128.4 57.5 128.4 128.3z"/>
				<path fill="#2e2e2e" d="m4518.5 483.8c0 70-56.7 126.6-126.6 126.6-69.9 0-126.6-56.6-126.6-126.6 0-69.9 56.7-126.5 126.6-126.5 69.9 0 126.6 56.6 126.6 126.5z"/>
				<path fill="#303030" d="m4516.7 483.8c0 69-55.9 124.8-124.8 124.8-68.9 0-124.8-55.8-124.8-124.8 0-68.9 55.9-124.8 124.8-124.8 68.9 0 124.8 55.9 124.8 124.8z"/>
				<path fill="#303030" d="m4514.9 483.8c0 68-55.1 123.1-123 123.1-67.9 0-123-55.1-123-123.1 0-67.9 55.1-123 123-123 67.9 0 123 55.1 123 123z"/>
				<path fill="#313131" d="m4513.1 483.8c0 67-54.2 121.3-121.2 121.3-67 0-121.2-54.3-121.2-121.3 0-66.9 54.2-121.2 121.2-121.2 67 0 121.2 54.3 121.2 121.2z"/>
				<path fill="#323232" d="m4511.3 483.8c0 66-53.4 119.5-119.4 119.5-66 0-119.4-53.5-119.4-119.5 0-65.9 53.4-119.4 119.4-119.4 66 0 119.4 53.5 119.4 119.4z"/>
				<path fill="#333333" d="m4509.6 483.8c0 65-52.7 117.7-117.7 117.7-65 0-117.7-52.7-117.7-117.7 0-64.9 52.7-117.6 117.7-117.6 65 0 117.7 52.7 117.7 117.6z"/>
				<path fill="#343434" d="m4507.8 483.8c0 64-51.9 115.9-115.9 115.9-64 0-115.9-51.9-115.9-115.9 0-64 51.9-115.8 115.9-115.8 64 0 115.9 51.8 115.9 115.8z"/>
				<path fill="#353535" d="m4506 483.8c0 63.1-51.1 114.1-114.1 114.1-63 0-114.1-51-114.1-114.1 0-63 51.1-114.1 114.1-114.1 63 0 114.1 51.1 114.1 114.1z"/>
				<path fill="#363636" d="m4504.2 483.8c0 62.1-50.3 112.4-112.3 112.4-62 0-112.3-50.3-112.3-112.4 0-62 50.3-112.3 112.3-112.3 62 0 112.3 50.3 112.3 112.3z"/>
				<path fill="#373737" d="m4502.4 483.8c0 61.1-49.5 110.6-110.5 110.6-61 0-110.5-49.5-110.5-110.6 0-61 49.5-110.5 110.5-110.5 61 0 110.5 49.5 110.5 110.5z"/>
				<path fill="#383838" d="m4500.7 483.8c0 60.1-48.7 108.8-108.8 108.8-60.1 0-108.8-48.7-108.8-108.8 0-60 48.7-108.7 108.8-108.7 60.1 0 108.8 48.7 108.8 108.7z"/>
				<path fill="#393939" d="m4498.9 483.8c0 59.1-47.9 107-107 107-59.1 0-107-47.9-107-107 0-59 47.9-106.9 107-106.9 59.1 0 107 47.9 107 106.9z"/>
				<path fill="#3b3b3b" d="m4497.1 483.8c0 58.1-47.1 105.2-105.2 105.2-58.1 0-105.2-47.1-105.2-105.2 0-58 47.1-105.1 105.2-105.1 58.1 0 105.2 47.1 105.2 105.1z"/>
				<path fill="#3c3c3c" d="m4495.3 483.8c0 57.2-46.3 103.4-103.4 103.4-57.1 0-103.4-46.2-103.4-103.4 0-57.1 46.3-103.4 103.4-103.4 57.1 0 103.4 46.3 103.4 103.4z"/>
				<path fill="#3d3d3d" d="m4493.5 483.8c0 56.2-45.5 101.7-101.6 101.7-56.1 0-101.6-45.5-101.6-101.7 0-56.1 45.5-101.6 101.6-101.6 56.1 0 101.6 45.5 101.6 101.6z"/>
				<path fill="#3e3e3e" d="m4491.7 483.8c0 55.2-44.7 99.9-99.8 99.9-55.1 0-99.8-44.7-99.8-99.9 0-55.1 44.7-99.8 99.8-99.8 55.1 0 99.8 44.7 99.8 99.8z"/>
				<path fill="#3f3f3f" d="m4490 483.8c0 54.2-43.9 98.1-98.1 98.1-54.2 0-98.1-43.9-98.1-98.1 0-54.1 43.9-98 98.1-98 54.2 0 98.1 43.9 98.1 98z"/>
				<path fill="#404040" d="m4488.2 483.8c0 53.2-43.1 96.3-96.3 96.3-53.2 0-96.3-43.1-96.3-96.3 0-53.1 43.1-96.2 96.3-96.2 53.2 0 96.3 43.1 96.3 96.2z"/>
				<path fill="#414141" d="m4486.4 483.8c0 52.2-42.3 94.5-94.5 94.5-52.2 0-94.5-42.3-94.5-94.5 0-52.1 42.3-94.4 94.5-94.4 52.2 0 94.5 42.3 94.5 94.4z"/>
				<path fill="#424242" d="m4484.6 483.8c0 51.2-41.5 92.8-92.7 92.8-51.2 0-92.7-41.6-92.7-92.8 0-51.2 41.5-92.7 92.7-92.7 51.2 0 92.7 41.5 92.7 92.7z"/>
				<path fill="#434343" d="m4482.8 483.8c0 50.3-40.7 91-90.9 91-50.2 0-90.9-40.7-90.9-91 0-50.2 40.7-90.9 90.9-90.9 50.2 0 90.9 40.7 90.9 90.9z"/>
				<path fill="#444444" d="m4481 483.8c0 49.3-39.9 89.2-89.1 89.2-49.2 0-89.1-39.9-89.1-89.2 0-49.2 39.9-89.1 89.1-89.1 49.2 0 89.1 39.9 89.1 89.1z"/>
				<path fill="#464646" d="m4479.3 483.8c0 48.3-39.2 87.4-87.4 87.4-48.2 0-87.4-39.1-87.4-87.4 0-48.2 39.2-87.3 87.4-87.3 48.2 0 87.4 39.1 87.4 87.3z"/>
				<path fill="#474747" d="m4477.5 483.8c0 47.3-38.3 85.6-85.6 85.6-47.3 0-85.6-38.3-85.6-85.6 0-47.2 38.3-85.5 85.6-85.5 47.3 0 85.6 38.3 85.6 85.5z"/>
				<path fill="#474747" d="m4475.7 483.8c0 46.3-37.5 83.8-83.8 83.8-46.3 0-83.8-37.5-83.8-83.8 0-46.2 37.5-83.7 83.8-83.7 46.3 0 83.8 37.5 83.8 83.7z"/>
				<path fill="#494949" d="m4473.9 483.8c0 45.3-36.7 82.1-82 82.1-45.3 0-82-36.8-82-82.1 0-45.2 36.7-82 82-82 45.3 0 82 36.8 82 82z"/>
				<path fill="#4a4a4a" d="m4472.1 483.8c0 44.4-35.9 80.3-80.2 80.3-44.3 0-80.2-35.9-80.2-80.3 0-44.3 35.9-80.2 80.2-80.2 44.3 0 80.2 35.9 80.2 80.2z"/>
				<path fill="#4b4b4b" d="m4470.3 483.8c0 43.4-35.1 78.5-78.4 78.5-43.3 0-78.4-35.1-78.4-78.5 0-43.3 35.1-78.4 78.4-78.4 43.3 0 78.4 35.1 78.4 78.4z"/>
				<path fill="#4c4c4c" d="m4468.6 483.8c0 42.4-34.4 76.7-76.7 76.7-42.3 0-76.7-34.3-76.7-76.7 0-42.3 34.4-76.6 76.7-76.6 42.3 0 76.7 34.3 76.7 76.6z"/>
				<path fill="#4e4e4e" d="m4466.8 483.8c0 41.4-33.5 74.9-74.9 74.9-41.4 0-74.9-33.5-74.9-74.9 0-41.3 33.5-74.8 74.9-74.8 41.4 0 74.9 33.5 74.9 74.8z"/>
				<path fill="#4f4f4f" d="m4465 483.8c0 40.4-32.7 73.1-73.1 73.1-40.4 0-73.1-32.7-73.1-73.1 0-40.3 32.7-73 73.1-73 40.4 0 73.1 32.7 73.1 73z"/>
				<path fill="#505050" d="m4463.2 483.8c0 39.4-31.9 71.4-71.3 71.4-39.4 0-71.3-32-71.3-71.4 0-39.3 31.9-71.3 71.3-71.3 39.4 0 71.3 32 71.3 71.3z"/>
				<path fill="#515151" d="m4461.4 483.8c0 38.4-31.1 69.6-69.5 69.6-38.4 0-69.5-31.2-69.5-69.6 0-38.4 31.1-69.5 69.5-69.5 38.4 0 69.5 31.1 69.5 69.5z"/>
				<path fill="#525252" d="m4459.6 483.8c0 37.5-30.3 67.8-67.7 67.8-37.4 0-67.7-30.3-67.7-67.8 0-37.4 30.3-67.7 67.7-67.7 37.4 0 67.7 30.3 67.7 67.7z"/>
				<path fill="#535353" d="m4457.9 483.8c0 36.5-29.6 66-66 66-36.4 0-66-29.5-66-66 0-36.4 29.6-65.9 66-65.9 36.4 0 66 29.5 66 65.9z"/>
				<path fill="#555555" d="m4456.1 483.8c0 35.5-28.8 64.2-64.2 64.2-35.4 0-64.2-28.7-64.2-64.2 0-35.4 28.8-64.1 64.2-64.1 35.4 0 64.2 28.7 64.2 64.1z"/>
				<path fill="#565656" d="m4454.3 483.8c0 34.5-27.9 62.4-62.4 62.4-34.5 0-62.4-27.9-62.4-62.4 0-34.4 27.9-62.4 62.4-62.4 34.5 0 62.4 28 62.4 62.4z"/>
				<path fill="#575757" d="m4452.5 483.8c0 33.5-27.1 60.7-60.6 60.7-33.5 0-60.6-27.2-60.6-60.7 0-33.4 27.1-60.6 60.6-60.6 33.5 0 60.6 27.2 60.6 60.6z"/>
				<path fill="#595959" d="m4450.7 483.8c0 32.5-26.3 58.9-58.8 58.9-32.5 0-58.8-26.4-58.8-58.9 0-32.4 26.3-58.8 58.8-58.8 32.5 0 58.8 26.4 58.8 58.8z"/>
				<path fill="#595959" d="m4449 483.8c0 31.6-25.6 57.1-57.1 57.1-31.5 0-57-25.5-57-57.1 0-31.5 25.5-57 57-57 31.5 0 57.1 25.5 57.1 57z"/>
				<path fill="#5b5b5b" d="m4447.2 483.8c0 30.6-24.8 55.3-55.3 55.3-30.5 0-55.3-24.7-55.3-55.3 0-30.5 24.8-55.2 55.3-55.2 30.5 0 55.3 24.7 55.3 55.2z"/>
				<path fill="#5c5c5c" d="m4445.4 483.8c0 29.6-24 53.5-53.5 53.5-29.5 0-53.5-23.9-53.5-53.5 0-29.5 24-53.4 53.5-53.4 29.5 0 53.5 23.9 53.5 53.4z"/>
				<path fill="#5d5d5d" d="m4443.6 483.8c0 28.6-23.1 51.7-51.7 51.7-28.6 0-51.7-23.1-51.7-51.7 0-28.5 23.1-51.7 51.7-51.7 28.6 0 51.7 23.2 51.7 51.7z"/>
				<path fill="#5e5e5e" d="m4441.8 483.8c0 27.6-22.3 50-49.9 50-27.6 0-49.9-22.4-49.9-50 0-27.5 22.3-49.9 49.9-49.9 27.6 0 49.9 22.4 49.9 49.9z"/>
				<path fill="#5f5f5f" d="m4440 483.8c0 26.6-21.5 48.2-48.1 48.2-26.6 0-48.1-21.6-48.1-48.2 0-26.5 21.5-48.1 48.1-48.1 26.6 0 48.1 21.6 48.1 48.1z"/>
				<path fill="#616161" d="m4438.3 483.8c0 25.6-20.8 46.4-46.4 46.4-25.6 0-46.4-20.8-46.4-46.4 0-25.6 20.8-46.3 46.4-46.3 25.6 0 46.4 20.7 46.4 46.3z"/>
				<path fill="#626262" d="m4436.5 483.8c0 24.7-20 44.6-44.6 44.6-24.6 0-44.6-19.9-44.6-44.6 0-24.6 20-44.5 44.6-44.5 24.6 0 44.6 19.9 44.6 44.5z"/>
				<path fill="#636363" d="m4434.7 483.8c0 23.7-19.2 42.8-42.8 42.8-23.6 0-42.8-19.1-42.8-42.8 0-23.6 19.2-42.7 42.8-42.7 23.6 0 42.8 19.1 42.8 42.7z"/>
				<path fill="#646464" d="m4432.9 483.8c0 22.7-18.4 41.1-41 41.1-22.6 0-41-18.4-41-41.1 0-22.6 18.4-41 41-41 22.6 0 41 18.4 41 41z"/>
				<path fill="#666666" d="m4431.1 483.8c0 21.7-17.5 39.3-39.2 39.3-21.7 0-39.2-17.6-39.2-39.3 0-21.6 17.5-39.2 39.2-39.2 21.7 0 39.2 17.6 39.2 39.2z"/>
				<path fill="#676767" d="m4429.3 483.8c0 20.7-16.7 37.5-37.4 37.5-20.7 0-37.4-16.8-37.4-37.5 0-20.6 16.7-37.4 37.4-37.4 20.7 0 37.4 16.8 37.4 37.4z"/>
				<path fill="#686868" d="m4427.6 483.8c0 19.7-16 35.7-35.7 35.7-19.7 0-35.7-16-35.7-35.7 0-19.6 16-35.6 35.7-35.6 19.7 0 35.7 16 35.7 35.6z"/>
				<path fill="#696969" d="m4425.8 483.8c0 18.8-15.2 33.9-33.9 33.9-18.7 0-33.9-15.1-33.9-33.9 0-18.7 15.2-33.8 33.9-33.8 18.7 0 33.9 15.1 33.9 33.8z"/>
				<path fill="#6a6a6a" d="m4424 483.8c0 17.8-14.4 32.1-32.1 32.1-17.7 0-32.1-14.3-32.1-32.1 0-17.7 14.4-32 32.1-32 17.7 0 32.1 14.3 32.1 32z"/>
				<path fill="#6c6c6c" d="m4422.2 483.8c0 16.8-13.6 30.4-30.3 30.4-16.7 0-30.3-13.6-30.3-30.4 0-16.7 13.6-30.3 30.3-30.3 16.7 0 30.3 13.6 30.3 30.3z"/>
				<path fill="#6d6d6d" d="m4420.4 483.8c0 15.8-12.7 28.6-28.5 28.6-15.8 0-28.5-12.8-28.5-28.6 0-15.7 12.7-28.5 28.5-28.5 15.8 0 28.5 12.8 28.5 28.5z"/>
				<path fill="#6e6e6e" d="m4418.6 483.8c0 14.8-11.9 26.8-26.7 26.8-14.8 0-26.7-12-26.7-26.8 0-14.7 11.9-26.7 26.7-26.7 14.8 0 26.7 12 26.7 26.7z"/>
				<path fill="#707070" d="m4416.9 483.8c0 13.8-11.2 25-25 25-13.8 0-25-11.2-25-25 0-13.7 11.2-24.9 25-24.9 13.8 0 25 11.2 25 24.9z"/>
				<path fill="#717171" d="m4415.1 483.8c0 12.8-10.4 23.2-23.2 23.2-12.8 0-23.2-10.4-23.2-23.2 0-12.8 10.4-23.1 23.2-23.1 12.8 0 23.2 10.3 23.2 23.1z"/>
				<path fill="#727272" d="m4413.3 483.8c0 11.9-9.6 21.4-21.4 21.4-11.8 0-21.4-9.5-21.4-21.4 0-11.8 9.6-21.3 21.4-21.3 11.8 0 21.4 9.5 21.4 21.3z"/>
				<path fill="#737373" d="m4411.5 483.8c0 10.9-8.8 19.7-19.6 19.7-10.8 0-19.6-8.8-19.6-19.7 0-10.8 8.8-19.6 19.6-19.6 10.8 0 19.6 8.8 19.6 19.6z"/>
				<path fill="#747474" d="m4409.7 483.8c0 9.9-8 17.9-17.8 17.9-9.8 0-17.8-8-17.8-17.9 0-9.8 8-17.8 17.8-17.8 9.8 0 17.8 8 17.8 17.8z"/>
				<path fill="#767676" d="m4407.9 483.8c0 8.9-7.1 16.1-16 16.1-8.9 0-16-7.2-16-16.1 0-8.8 7.1-16 16-16 8.9 0 16 7.2 16 16z"/>
				<path fill="#777777" d="m4406.2 483.8c0 7.9-6.4 14.3-14.3 14.3-7.9 0-14.3-6.4-14.3-14.3 0-7.8 6.4-14.2 14.3-14.2 7.9 0 14.3 6.4 14.3 14.2z"/>
				<path fill="#787878" d="m4404.4 483.8c0 6.9-5.6 12.5-12.5 12.5-6.9 0-12.5-5.6-12.5-12.5 0-6.8 5.6-12.4 12.5-12.4 6.9 0 12.5 5.6 12.5 12.4z"/>
				<path fill="#7a7a7a" d="m4402.6 483.8c0 6-4.8 10.7-10.7 10.7-5.9 0-10.7-4.7-10.7-10.7 0-5.9 4.8-10.7 10.7-10.7 5.9 0 10.7 4.8 10.7 10.7z"/>
				<path fill="#7b7b7b" d="m4400.8 483.8c0 5-4 9-8.9 9-4.9 0-8.9-4-8.9-9 0-4.9 4-8.9 8.9-8.9 4.9 0 8.9 4 8.9 8.9z"/>
				<path fill="#7c7c7c" d="m4399 483.8c0 4-3.2 7.2-7.1 7.2-3.9 0-7.1-3.2-7.1-7.2 0-3.9 3.2-7.1 7.1-7.1 3.9 0 7.1 3.2 7.1 7.1z"/>
				<path fill="#7d7d7d" d="m4397.2 483.8c0 3-2.3 5.4-5.3 5.4-3 0-5.3-2.4-5.3-5.4 0-2.9 2.3-5.3 5.3-5.3 3 0 5.3 2.4 5.3 5.3z"/>
				<path fill="#7f7f7f" d="m4395.5 483.8c0 2-1.6 3.6-3.6 3.6-2 0-3.6-1.6-3.6-3.6 0-1.9 1.6-3.5 3.6-3.5 2 0 3.6 1.6 3.6 3.5z"/>
				<path fill="#808080" d="m4393.7 483.8c0 1-0.8 1.8-1.8 1.8-1 0-1.8-0.8-1.8-1.8 0-0.9 0.8-1.7 1.8-1.7 1 0 1.8 0.8 1.8 1.7z"/>
			</g>
			<path fill-rule="evenodd" fill="#dbdbdb" d="m4640.3 769.2h-59.8l-11.8-17.1c-12.9 5.2-27.1 9.5-42.1 12.7-8.1 1.8-16.3 3.2-24.2 4.4h-0.8-220.2c-7.9-1.2-16.1-2.6-24.2-4.4-24-5.2-45.1-12.6-62.6-22-27-14.5-44.6-33.2-52.3-55.7-2.9-8.7-4.4-17.8-4.4-27.3v-202.9c0-9.1 1.3-17.8 4-26 4.9-15.4 14.6-29.2 28.7-41.1 45.2-37.8 121-43.5 124.2-43.8h0.4 320v92.2h-275.5c-7.7 0.2-15.1 2.6-21.4 6.9-10.6 7.2-17.1 19.2-17.4 32.1q0 0.4-0.1 0.7v3.7 158.1c0.1 18.4 12.3 34.1 29.9 38.7l61.3 0.6 69.5-0.7c17.5-4.6 29.8-20.3 29.8-38.5l0.1-22.3h-21.4v-68h175.9v219.6zm-53.9-11.2h48.3v-197.4h-153.6v45.7h21.5l-0.1 33.7c-0.2 23.5-16.2 43.7-39 49.3l-0.6 0.1-71 0.8-62.6-0.7-0.6-0.1c-22.9-5.6-38.9-25.8-39.1-49.3v-0.3-161.7q0-0.5 0.1-1c0.4-16.6 8.7-32 22.3-41.2 8-5.5 17.5-8.6 27.4-8.9h0.3q0.5 0 1 0h263.3v-69.8h-308.6c-4.1 0.3-76.2 6.6-117.6 41.2-12.5 10.4-21 22.5-25.3 35.9-2.3 7.1-3.4 14.7-3.4 22.6v202.9c0 8.2 1.2 16.2 3.8 23.7 6.7 19.7 22.5 36.3 46.9 49.4 16.7 8.9 36.8 16 59.8 21 7.7 1.7 15.4 3.1 23 4.1h218.6c7.6-1 15.3-2.4 23-4.1 16-3.5 30.9-8.1 44.4-13.8l4.2-1.8z"/>
		</g>
	</g>
</svg>