<svg xmlns="http://www.w3.org/2000/svg" width="1281.444" height="184.443" viewBox="0 0 1281.444 184.443">
  <g id="Grupo_20" data-name="Grupo 20" transform="translate(-360.528 -1183.611)">
    <path id="Trazado_393" data-name="Trazado 393" d="M757.486,1294.558l110.946-110.947H817.012l-91.329,91.329h0l-91.33-91.329H582.93l110.8,110.8h0v73.643h63.758v-73.5Z" fill="#fdcb02"/>
    <g id="Grupo_19" data-name="Grupo 19">
      <path id="Trazado_394" data-name="Trazado 394" d="M1215.64,1233.748a5.766,5.766,0,0,1,3,.726,7.4,7.4,0,0,1,2.389,2.834l15.508,28.158a.971.971,0,0,1,.117.773c-.078.2-.3.3-.679.3h-5.95a1.072,1.072,0,0,1-1.078-.609l-3.326-6.044H1203.6l-3.232,6.044a1.132,1.132,0,0,1-1.078.609H1193.2q-.609,0-.726-.3a.971.971,0,0,1,.117-.773l15.367-28.158a7.915,7.915,0,0,1,2.3-2.834,4.726,4.726,0,0,1,2.624-.726Zm-9.089,20.708h16.116l-7.449-13.727a.573.573,0,0,0-.515-.328h-.281a.573.573,0,0,0-.516.328Z" fill="#fdcb02"/>
      <path id="Trazado_395" data-name="Trazado 395" d="M1249.278,1233.748a.912.912,0,0,1,1.031,1.031v18.693a13.352,13.352,0,0,0,.3,3.115,4.194,4.194,0,0,0,1.008,1.968,3.9,3.9,0,0,0,1.9,1.031,12.522,12.522,0,0,0,3.022.3h18.974a.912.912,0,0,1,1.031,1.031v4.592a.911.911,0,0,1-1.031,1.03h-19.255a23.95,23.95,0,0,1-6.044-.656,9.217,9.217,0,0,1-4.052-2.132,8.6,8.6,0,0,1-2.3-3.841,19.715,19.715,0,0,1-.726-5.739v-19.4q0-1.031,1.077-1.031Z" fill="#fdcb02"/>
      <path id="Trazado_396" data-name="Trazado 396" d="M1312.572,1233.748a23.512,23.512,0,0,1,6.067.679,9.432,9.432,0,0,1,4.076,2.156,8.439,8.439,0,0,1,2.272,3.818,20.1,20.1,0,0,1,.7,5.716v7.261q0,5.716-2.132,8.6t-7.1,3.538l5.388,7.449a.894.894,0,0,1,.117.7c-.047.312-.289.469-.727.469h-6a1.771,1.771,0,0,1-.844-.141,1.89,1.89,0,0,1-.468-.421l-5.388-7.824H1298.1a23.989,23.989,0,0,1-6.044-.656,9.225,9.225,0,0,1-4.053-2.132,8.6,8.6,0,0,1-2.3-3.842,19.7,19.7,0,0,1-.727-5.739v-7.261a19.473,19.473,0,0,1,.727-5.716,8.6,8.6,0,0,1,2.3-3.818,9.423,9.423,0,0,1,4.053-2.156,23.227,23.227,0,0,1,6.044-.679Zm-20.427,19.115a13.119,13.119,0,0,0,.3,3.069,4.2,4.2,0,0,0,1.007,1.967,3.911,3.911,0,0,0,1.9,1.031,12.46,12.46,0,0,0,3.022.3h13.914a12.466,12.466,0,0,0,3.022-.3,3.908,3.908,0,0,0,1.9-1.031,4.2,4.2,0,0,0,1.007-1.967,13.119,13.119,0,0,0,.3-3.069v-6.231a13.119,13.119,0,0,0-.3-3.069,4.208,4.208,0,0,0-1.007-1.968,3.924,3.924,0,0,0-1.9-1.03,12.516,12.516,0,0,0-3.022-.3h-13.914a12.51,12.51,0,0,0-3.022.3,3.927,3.927,0,0,0-1.9,1.03,4.217,4.217,0,0,0-1.007,1.968,13.119,13.119,0,0,0-.3,3.069Z" fill="#fdcb02"/>
      <path id="Trazado_397" data-name="Trazado 397" d="M1342.134,1233.748a.912.912,0,0,1,1.031,1.031v18.693a13.353,13.353,0,0,0,.3,3.115,4.194,4.194,0,0,0,1.008,1.968,3.9,3.9,0,0,0,1.9,1.031,12.516,12.516,0,0,0,3.022.3h12.977a12.522,12.522,0,0,0,3.022-.3,3.908,3.908,0,0,0,1.9-1.031,4.032,4.032,0,0,0,.984-1.968,14.384,14.384,0,0,0,.281-3.115v-18.693a.912.912,0,0,1,1.031-1.031h5.107a.911.911,0,0,1,1.03,1.031v19.4a20.383,20.383,0,0,1-.7,5.739,8.442,8.442,0,0,1-2.272,3.841,9.243,9.243,0,0,1-4.076,2.132,24.243,24.243,0,0,1-6.067.656h-13.493a23.943,23.943,0,0,1-6.044-.656,9.216,9.216,0,0,1-4.052-2.132,8.6,8.6,0,0,1-2.3-3.841,19.715,19.715,0,0,1-.726-5.739v-19.4q0-1.031,1.077-1.031Z" fill="#fdcb02"/>
      <path id="Trazado_398" data-name="Trazado 398" d="M1392.591,1233.748a.912.912,0,0,1,1.031,1.031v30.734a.911.911,0,0,1-1.031,1.03h-5.06q-1.078,0-1.077-1.03v-30.734q0-1.031,1.077-1.031Z" fill="#fdcb02"/>
      <path id="Trazado_399" data-name="Trazado 399" d="M1410.488,1233.748a.912.912,0,0,1,1.031,1.031v18.693a13.353,13.353,0,0,0,.3,3.115,4.2,4.2,0,0,0,1.007,1.968,3.912,3.912,0,0,0,1.9,1.031,12.516,12.516,0,0,0,3.022.3h18.974a.912.912,0,0,1,1.031,1.031v4.592a.911.911,0,0,1-1.031,1.03h-19.256a23.94,23.94,0,0,1-6.043-.656,9.227,9.227,0,0,1-4.053-2.132,8.6,8.6,0,0,1-2.295-3.841,19.715,19.715,0,0,1-.726-5.739v-19.4q0-1.031,1.077-1.031Z" fill="#fdcb02"/>
      <path id="Trazado_400" data-name="Trazado 400" d="M1479.919,1233.748q1.077,0,1.078,1.031v4.451q0,1.031-1.078,1.03h-20.473a12.517,12.517,0,0,0-3.022.3,4.078,4.078,0,0,0-1.921,1.03,3.935,3.935,0,0,0-1.007,1.968,14.2,14.2,0,0,0-.281,3.069v.468h26.47a.912.912,0,0,1,1.031,1.031v3.7a.912.912,0,0,1-1.031,1.031h-26.47v.8a14.194,14.194,0,0,0,.281,3.069,3.927,3.927,0,0,0,1.007,1.968,4.059,4.059,0,0,0,1.921,1.03,12.455,12.455,0,0,0,3.022.305h20.473q1.077,0,1.078,1.031v4.451q0,1.031-1.078,1.03h-20.614a23.942,23.942,0,0,1-6.043-.656,9.226,9.226,0,0,1-4.053-2.132,8.6,8.6,0,0,1-2.3-3.841,19.748,19.748,0,0,1-.726-5.739v-8.058a19.508,19.508,0,0,1,.726-5.716,8.61,8.61,0,0,1,2.3-3.818,9.423,9.423,0,0,1,4.053-2.156,23.225,23.225,0,0,1,6.043-.679Z" fill="#fdcb02"/>
      <path id="Trazado_401" data-name="Trazado 401" d="M1517.54,1233.748q5.386,0,7.73,2.436t2.343,7.215v2.671a10.937,10.937,0,0,1-1.64,6.371,7.831,7.831,0,0,1-5.341,3l8.011,9.932a.739.739,0,0,1,.141.7q-.095.468-.75.468h-6.044a1.771,1.771,0,0,1-.843-.141,1.64,1.64,0,0,1-.468-.468l-7.4-9.745h-15.132v9.324a.911.911,0,0,1-1.031,1.03h-5.06q-1.078,0-1.077-1.03v-30.359a1.242,1.242,0,0,1,1.405-1.406Zm-19.4,16.726h17.943a4.542,4.542,0,0,0,3.374-1.031,4.4,4.4,0,0,0,.983-3.139v-1.968a4.405,4.405,0,0,0-.983-3.139,4.542,4.542,0,0,0-3.374-1.031h-17.334q-.609,0-.609.563Z" fill="#fdcb02"/>
      <path id="Trazado_402" data-name="Trazado 402" d="M1581.583,1233.748a24.035,24.035,0,0,1,6.513.773,10.7,10.7,0,0,1,4.45,2.389,9.61,9.61,0,0,1,2.554,4.123,19.149,19.149,0,0,1,.82,5.927v6.371a19.14,19.14,0,0,1-.82,5.927,9.6,9.6,0,0,1-2.554,4.123,10.686,10.686,0,0,1-4.45,2.389,24.035,24.035,0,0,1-6.513.773h-21.925a1.243,1.243,0,0,1-1.406-1.406v-29.983a1.243,1.243,0,0,1,1.406-1.406Zm-16.163,25.674a.538.538,0,0,0,.609.609H1581.4a13.667,13.667,0,0,0,3.467-.375,5.054,5.054,0,0,0,2.272-1.218,4.782,4.782,0,0,0,1.242-2.249,13.66,13.66,0,0,0,.375-3.467v-5.153a13.665,13.665,0,0,0-.375-3.467,4.782,4.782,0,0,0-1.242-2.249,5.054,5.054,0,0,0-2.272-1.218,13.667,13.667,0,0,0-3.467-.375h-15.367q-.609,0-.609.656Z" fill="#fdcb02"/>
      <path id="Trazado_403" data-name="Trazado 403" d="M1639.724,1233.748q1.077,0,1.077,1.031v4.451q0,1.031-1.077,1.03H1619.25a12.521,12.521,0,0,0-3.022.3,4.083,4.083,0,0,0-1.921,1.03,3.951,3.951,0,0,0-1.007,1.968,14.2,14.2,0,0,0-.281,3.069v.468h26.47a.912.912,0,0,1,1.031,1.031v3.7a.912.912,0,0,1-1.031,1.031h-26.47v.8a14.194,14.194,0,0,0,.281,3.069,3.943,3.943,0,0,0,1.007,1.968,4.064,4.064,0,0,0,1.921,1.03,12.459,12.459,0,0,0,3.022.305h20.474q1.077,0,1.077,1.031v4.451q0,1.031-1.077,1.03H1619.11a23.949,23.949,0,0,1-6.044-.656,9.227,9.227,0,0,1-4.053-2.132,8.61,8.61,0,0,1-2.295-3.841,19.715,19.715,0,0,1-.726-5.739v-8.058a19.475,19.475,0,0,1,.726-5.716,8.618,8.618,0,0,1,2.295-3.818,9.423,9.423,0,0,1,4.053-2.156,23.232,23.232,0,0,1,6.044-.679Z" fill="#fdcb02"/>
      <path id="Trazado_404" data-name="Trazado 404" d="M1215.64,1285.122a5.766,5.766,0,0,1,3,.726,7.4,7.4,0,0,1,2.389,2.834l15.508,28.157a.972.972,0,0,1,.117.773c-.078.2-.3.3-.679.3h-5.95a1.072,1.072,0,0,1-1.078-.609l-3.326-6.044H1203.6l-3.232,6.044a1.132,1.132,0,0,1-1.078.609H1193.2c-.406,0-.648-.1-.726-.3a.972.972,0,0,1,.117-.773l15.367-28.157a7.915,7.915,0,0,1,2.3-2.834,4.726,4.726,0,0,1,2.624-.726Zm-9.089,20.708h16.116l-7.449-13.727a.573.573,0,0,0-.515-.328h-.281a.573.573,0,0,0-.516.328Z" fill="#fdcb02"/>
      <path id="Trazado_405" data-name="Trazado 405" d="M1244.687,1285.122a.911.911,0,0,1,1.03,1.031v18.693a13.3,13.3,0,0,0,.3,3.115,4.207,4.207,0,0,0,1.007,1.968,3.912,3.912,0,0,0,1.9,1.031,12.52,12.52,0,0,0,3.022.3h12.978a12.52,12.52,0,0,0,3.022-.3,3.908,3.908,0,0,0,1.9-1.031,4.036,4.036,0,0,0,.984-1.968,14.454,14.454,0,0,0,.281-3.115v-18.693a.912.912,0,0,1,1.031-1.031h5.107a.911.911,0,0,1,1.03,1.031v19.4a20.344,20.344,0,0,1-.7,5.739,8.438,8.438,0,0,1-2.272,3.841,9.232,9.232,0,0,1-4.076,2.132,24.238,24.238,0,0,1-6.067.656h-13.493a23.941,23.941,0,0,1-6.043-.656,9.226,9.226,0,0,1-4.053-2.132,8.608,8.608,0,0,1-2.3-3.841,19.748,19.748,0,0,1-.726-5.739v-19.4q0-1.031,1.078-1.031Z" fill="#fdcb02"/>
      <path id="Trazado_406" data-name="Trazado 406" d="M1320.068,1285.122q1.077,0,1.078,1.031v4.591a.953.953,0,0,1-1.078,1.078h-14.711v25.064a.911.911,0,0,1-1.031,1.031h-5.106a.911.911,0,0,1-1.031-1.031v-25.064h-14.711a.953.953,0,0,1-1.078-1.078v-4.591q0-1.031,1.078-1.031Z" fill="#fdcb02"/>
      <path id="Trazado_407" data-name="Trazado 407" d="M1351.6,1285.122a23.511,23.511,0,0,1,6.067.679,9.437,9.437,0,0,1,4.076,2.155,8.446,8.446,0,0,1,2.272,3.819,20.084,20.084,0,0,1,.7,5.715v8.059a20.34,20.34,0,0,1-.7,5.739,8.438,8.438,0,0,1-2.272,3.841,9.243,9.243,0,0,1-4.076,2.132,24.238,24.238,0,0,1-6.067.656h-14.477a23.941,23.941,0,0,1-6.043-.656,9.226,9.226,0,0,1-4.053-2.132,8.608,8.608,0,0,1-2.3-3.841,19.749,19.749,0,0,1-.726-5.739v-8.059a19.5,19.5,0,0,1,.726-5.715,8.618,8.618,0,0,1,2.3-3.819,9.421,9.421,0,0,1,4.053-2.155,23.224,23.224,0,0,1,6.043-.679Zm-20.427,19.911a13.062,13.062,0,0,0,.3,3.069,4.2,4.2,0,0,0,1.007,1.968,3.918,3.918,0,0,0,1.9,1.03,12.451,12.451,0,0,0,3.021.305h13.915a12.465,12.465,0,0,0,3.022-.305,3.915,3.915,0,0,0,1.9-1.03,4.2,4.2,0,0,0,1.007-1.968,13.115,13.115,0,0,0,.3-3.069v-7.027a13.114,13.114,0,0,0-.3-3.069,4.208,4.208,0,0,0-1.007-1.968,3.915,3.915,0,0,0-1.9-1.03,12.515,12.515,0,0,0-3.022-.3H1337.4a12.5,12.5,0,0,0-3.021.3,3.918,3.918,0,0,0-1.9,1.03,4.208,4.208,0,0,0-1.007,1.968,13.061,13.061,0,0,0-.3,3.069Z" fill="#fdcb02"/>
      <path id="Trazado_408" data-name="Trazado 408" d="M1379.8,1285.122a9.871,9.871,0,0,1,1.781.14,3.291,3.291,0,0,1,1.311.539,3.974,3.974,0,0,1,1.008,1.078,11.3,11.3,0,0,1,.913,1.8l9.745,22.489a.662.662,0,0,0,.656.421h.562a.663.663,0,0,0,.656-.421l9.745-22.489a11.222,11.222,0,0,1,.913-1.8,3.959,3.959,0,0,1,1.008-1.078,3.282,3.282,0,0,1,1.288-.539,9.47,9.47,0,0,1,1.757-.14h5.013q2.436,0,3.279,1.1a6.36,6.36,0,0,1,.844,3.771v26.892q0,1.032-1.078,1.031h-4.778a.911.911,0,0,1-1.031-1.031V1292.43c0-.311-.125-.468-.375-.468h-.422a.581.581,0,0,0-.609.375l-9.463,20.989a13.976,13.976,0,0,1-1.148,2.131,6.732,6.732,0,0,1-1.265,1.429,4.057,4.057,0,0,1-1.546.8,7.877,7.877,0,0,1-2.038.234h-2.249a7.872,7.872,0,0,1-2.038-.234,4.043,4.043,0,0,1-1.546-.8,6.679,6.679,0,0,1-1.265-1.429,13.891,13.891,0,0,1-1.148-2.131l-9.464-20.989a.58.58,0,0,0-.609-.375h-.421c-.251,0-.375.157-.375.468v24.456a.911.911,0,0,1-1.031,1.031H1371.6c-.72,0-1.078-.343-1.078-1.031v-26.892a6.368,6.368,0,0,1,.843-3.771q.843-1.1,3.327-1.1Z" fill="#fdcb02"/>
      <path id="Trazado_409" data-name="Trazado 409" d="M1453.683,1285.122a23.506,23.506,0,0,1,6.067.679,9.425,9.425,0,0,1,4.076,2.155,8.458,8.458,0,0,1,2.273,3.819,20.127,20.127,0,0,1,.7,5.715v8.059a20.383,20.383,0,0,1-.7,5.739,8.45,8.45,0,0,1-2.273,3.841,9.232,9.232,0,0,1-4.076,2.132,24.232,24.232,0,0,1-6.067.656h-14.476a23.95,23.95,0,0,1-6.044-.656,9.226,9.226,0,0,1-4.053-2.132,8.606,8.606,0,0,1-2.3-3.841,19.713,19.713,0,0,1-.727-5.739v-8.059a19.465,19.465,0,0,1,.727-5.715,8.616,8.616,0,0,1,2.3-3.819,9.421,9.421,0,0,1,4.053-2.155,23.233,23.233,0,0,1,6.044-.679Zm-20.427,19.911a13.114,13.114,0,0,0,.305,3.069,4.206,4.206,0,0,0,1.007,1.968,3.918,3.918,0,0,0,1.9,1.03,12.461,12.461,0,0,0,3.022.305H1453.4a12.459,12.459,0,0,0,3.022-.305,3.911,3.911,0,0,0,1.9-1.03,4.207,4.207,0,0,0,1.008-1.968,13.172,13.172,0,0,0,.3-3.069v-7.027a13.171,13.171,0,0,0-.3-3.069,4.217,4.217,0,0,0-1.008-1.968,3.911,3.911,0,0,0-1.9-1.03,12.509,12.509,0,0,0-3.022-.3h-13.914a12.51,12.51,0,0,0-3.022.3,3.918,3.918,0,0,0-1.9,1.03,4.216,4.216,0,0,0-1.007,1.968,13.113,13.113,0,0,0-.305,3.069ZM1452.325,1275a1.027,1.027,0,0,1,.749.235q.234.234-.093.655l-4.779,6.887a2.174,2.174,0,0,1-.586.68,1.421,1.421,0,0,1-.82.211h-3.56a1.023,1.023,0,0,1-.75-.235c-.157-.156-.14-.375.047-.656l4.17-6.887a1.6,1.6,0,0,1,1.452-.89Z" fill="#fdcb02"/>
      <path id="Trazado_410" data-name="Trazado 410" d="M1475,1285.122a1.264,1.264,0,0,1,.679.14,1.368,1.368,0,0,1,.4.469l13.727,25.205a.55.55,0,0,0,.563.328h.234a.573.573,0,0,0,.515-.328l13.54-25.205a1.072,1.072,0,0,1,1.078-.609h6.137c.374,0,.6.1.679.3a.974.974,0,0,1-.117.774l-15.367,28.156a7.619,7.619,0,0,1-2.3,2.858,4.846,4.846,0,0,1-2.624.7h-2.717a5.88,5.88,0,0,1-3.022-.7,7.235,7.235,0,0,1-2.366-2.858l-15.554-28.156a.971.971,0,0,1-.118-.774c.078-.2.32-.3.726-.3Z" fill="#fdcb02"/>
      <path id="Trazado_411" data-name="Trazado 411" d="M1522.552,1285.122a.912.912,0,0,1,1.031,1.031v30.733a.911.911,0,0,1-1.031,1.031h-5.06q-1.078,0-1.077-1.031v-30.733q0-1.031,1.077-1.031Z" fill="#fdcb02"/>
      <path id="Trazado_412" data-name="Trazado 412" d="M1535.857,1285.122a.912.912,0,0,1,1.031,1.031v18.693a13.3,13.3,0,0,0,.305,3.115,4.189,4.189,0,0,0,1.007,1.968,3.908,3.908,0,0,0,1.9,1.031,12.52,12.52,0,0,0,3.022.3h18.974a.912.912,0,0,1,1.031,1.031v4.591a.911.911,0,0,1-1.031,1.031h-19.255a23.95,23.95,0,0,1-6.044-.656,9.222,9.222,0,0,1-4.052-2.132,8.607,8.607,0,0,1-2.3-3.841,19.748,19.748,0,0,1-.726-5.739v-19.4q0-1.031,1.078-1.031Z" fill="#fdcb02"/>
      <path id="Trazado_413" data-name="Trazado 413" d="M1600.7,1285.122q1.077,0,1.077,1.031v4.45q0,1.032-1.077,1.031h-20.474a12.515,12.515,0,0,0-3.022.3,4.073,4.073,0,0,0-1.921,1.03,3.951,3.951,0,0,0-1.007,1.968,14.193,14.193,0,0,0-.281,3.069v.468h26.47a.912.912,0,0,1,1.031,1.031v3.7a.912.912,0,0,1-1.031,1.031h-26.47v.8a14.194,14.194,0,0,0,.281,3.069,3.942,3.942,0,0,0,1.007,1.968,4.073,4.073,0,0,0,1.921,1.03,12.465,12.465,0,0,0,3.022.305H1600.7q1.077,0,1.077,1.031v4.45q0,1.032-1.077,1.031h-20.614a23.949,23.949,0,0,1-6.044-.656,9.226,9.226,0,0,1-4.053-2.132,8.606,8.606,0,0,1-2.3-3.841,19.712,19.712,0,0,1-.727-5.739v-8.059a19.465,19.465,0,0,1,.727-5.715,8.616,8.616,0,0,1,2.3-3.819,9.421,9.421,0,0,1,4.053-2.155,23.231,23.231,0,0,1,6.044-.679Z" fill="#fdcb02"/>
      <path id="Trazado_414" data-name="Trazado 414" d="M1639.724,1285.122a.911.911,0,0,1,1.03,1.031v4.45a.911.911,0,0,1-1.03,1.031h-23.472a2.324,2.324,0,0,0-1.921.7,2.991,2.991,0,0,0-.563,1.921v1.593q0,2.624,2.437,2.623h17.568q4.077,0,6.138,2.085a8.139,8.139,0,0,1,2.061,5.973v3.748a7.674,7.674,0,0,1-2.014,5.529q-2.016,2.108-6.278,2.108h-25.955q-1.078,0-1.078-1.031v-4.45q0-1.031,1.078-1.031h24.6a2.325,2.325,0,0,0,1.921-.7,2.989,2.989,0,0,0,.562-1.921v-1.921q0-2.624-2.436-2.623H1614.8q-4.075,0-6.137-2.085a8.135,8.135,0,0,1-2.062-5.973v-3.421a7.672,7.672,0,0,1,2.015-5.528q2.013-2.108,6.278-2.108Z" fill="#fdcb02"/>
    </g>
    <path id="Trazado_415" data-name="Trazado 415" d="M550.128,1274.692H509.173v25.449h9.6l-.042,12.446c0,.015,0,.03,0,.046a20.35,20.35,0,0,1-15.514,19.71l-3.768.039-27.714.287-27.714-.287a20.351,20.351,0,0,1-15.554-19.72c0-.016,0-.031,0-.047v-72.384c0-.152.019-.3.022-.449a20.312,20.312,0,0,1,19.808-19.893c.178-.005.353-.02.532-.02H569.173v-36.258H428.459s-34.326,2.431-54.175,19.038a37.46,37.46,0,0,0-12.1,17.22,35.184,35.184,0,0,0-1.659,10.863V1321.6a35.015,35.015,0,0,0,1.848,11.38c3.643,10.7,12.311,18.24,22.207,23.542a107.757,107.757,0,0,0,27.4,9.633c4.153.9,7.833,1.511,10.65,1.9h98.2c2.817-.392,6.5-1,10.65-1.9a117.731,117.731,0,0,0,20.324-6.316l5.678,8.219H582.93v-93.362Z" fill="#fdcb02"/>
    <path id="Trazado_416" data-name="Trazado 416" d="M1058.033,1274.692h-40.956v25.449h9.6l-.042,12.446c0,.015,0,.03,0,.046a20.35,20.35,0,0,1-15.514,19.71l-3.768.039-27.714.287-27.714-.287a20.352,20.352,0,0,1-15.554-19.72c0-.016,0-.031,0-.047v-72.384c0-.152.019-.3.022-.449a20.312,20.312,0,0,1,19.808-19.893c.178-.005.353-.02.532-.02h120.352v-36.258H936.363s-34.326,2.431-54.174,19.038a37.454,37.454,0,0,0-12.1,17.22,35.185,35.185,0,0,0-1.659,10.863V1321.6a35.015,35.015,0,0,0,1.848,11.38c3.643,10.7,12.311,18.24,22.207,23.542a107.758,107.758,0,0,0,27.4,9.633c4.153.9,7.833,1.511,10.65,1.9h98.2c2.817-.392,6.5-1,10.65-1.9a117.733,117.733,0,0,0,20.324-6.316l5.678,8.219h25.449v-93.362Z" fill="#fdcb02"/>
  </g>
</svg>
