<svg xmlns="http://www.w3.org/2000/svg" width="730.306" height="184.443" viewBox="0 0 730.306 184.443">
  <g id="Grupo_21" data-name="Grupo 21" transform="translate(-360.528 -1598.611)">
    <path id="Trazado_185" data-name="Trazado 185" d="M2777.486,1294.558l110.946-110.947h-51.419l-91.329,91.329h0l-91.33-91.329H2602.93l110.8,110.8h0v73.643h63.758v-73.5Z" transform="translate(-2020 415)"/>
    <path id="Trazado_207" data-name="Trazado 207" d="M2570.128,1274.692h-40.955v25.449h9.6l-.042,12.446c0,.015,0,.03,0,.046a20.35,20.35,0,0,1-15.514,19.71l-3.768.039-27.714.287-27.714-.287a20.351,20.351,0,0,1-15.554-19.72c0-.016,0-.031,0-.047v-72.384c0-.152.019-.3.022-.449a20.312,20.312,0,0,1,19.808-19.893c.178-.005.353-.02.532-.02h120.352v-36.258H2448.459s-34.326,2.431-54.175,19.038a37.461,37.461,0,0,0-12.1,17.22,35.181,35.181,0,0,0-1.659,10.863V1321.6a35.015,35.015,0,0,0,1.848,11.38c3.643,10.7,12.311,18.24,22.207,23.542a107.756,107.756,0,0,0,27.4,9.633c4.153.9,7.833,1.511,10.65,1.9h98.2c2.817-.392,6.5-1,10.65-1.9a117.73,117.73,0,0,0,20.324-6.316l5.678,8.219h25.449v-93.362Z" transform="translate(-2020 415)"/>
    <path id="Trazado_208" data-name="Trazado 208" d="M3078.033,1274.692h-40.956v25.449h9.6l-.042,12.446c0,.015,0,.03,0,.046a20.35,20.35,0,0,1-15.514,19.71l-3.768.039-27.714.287-27.714-.287a20.352,20.352,0,0,1-15.554-19.72c0-.016,0-.031,0-.047v-72.384c0-.152.019-.3.022-.449a20.312,20.312,0,0,1,19.808-19.893c.178-.005.353-.02.532-.02h120.352v-36.258H2956.363s-34.326,2.431-54.174,19.038a37.456,37.456,0,0,0-12.1,17.22,35.181,35.181,0,0,0-1.659,10.863V1321.6a35.015,35.015,0,0,0,1.848,11.38c3.643,10.7,12.311,18.24,22.207,23.542a107.756,107.756,0,0,0,27.4,9.633c4.153.9,7.833,1.511,10.65,1.9h98.2c2.817-.392,6.5-1,10.65-1.9a117.736,117.736,0,0,0,20.324-6.316l5.678,8.219h25.449v-93.362Z" transform="translate(-2020 415)"/>
  </g>
</svg>
